<?xml version="1.0" encoding="UTF-8" standalone="no"?>
<!DOCTYPE svg PUBLIC "-//W3C//DTD SVG 1.1//EN"
 "http://www.w3.org/Graphics/SVG/1.1/DTD/svg11.dtd">
<!-- Generated by graphviz version 9.0.0 (20230911.1827)
 -->
<!-- Title: HemaLab_HyperPETE_Nextflow Pages: 1 -->
<svg width="4807pt" height="1370pt"
 viewBox="0.00 0.00 4806.89 1369.92" xmlns="http://www.w3.org/2000/svg" xmlns:xlink="http://www.w3.org/1999/xlink">
<g id="graph0" class="graph" transform="scale(1 1) rotate(0) translate(12.96 1356.96)">
<title>HemaLab_HyperPETE_Nextflow</title>
<polygon fill="white" stroke="none" points="-12.96,12.96 -12.96,-1356.96 4793.93,-1356.96 4793.93,12.96 -12.96,12.96"/>
<text text-anchor="middle" x="2390.49" y="-1311.5" font-family="Helvetica,sans-Serif" font-size="30.00">HemaLab HyperPETE Nextflow Pipeline</text>
<g id="clust6" class="cluster">
<title>cluster_cohort</title>
<path fill="#f8f9fb" stroke="#c6ccd6" d="M2760.37,-635C2760.37,-635 4557.41,-635 4557.41,-635 4563.41,-635 4569.41,-641 4569.41,-647 4569.41,-647 4569.41,-754 4569.41,-754 4569.41,-760 4563.41,-766 4557.41,-766 4557.41,-766 2760.37,-766 2760.37,-766 2754.37,-766 2748.37,-760 2748.37,-754 2748.37,-754 2748.37,-647 2748.37,-647 2748.37,-641 2754.37,-635 2760.37,-635"/>
<text text-anchor="middle" x="3658.89" y="-744.9" font-family="Helvetica,sans-Serif" font-size="18.00">Cohort Artifact Marking and Final Reports</text>
</g>
<g id="clust4" class="cluster">
<title>cluster_calling</title>
<path fill="#fbf7ff" stroke="#dcc7ee" d="M2299.62,-207C2299.62,-207 2958.93,-207 2958.93,-207 2964.93,-207 2970.93,-213 2970.93,-219 2970.93,-219 2970.93,-517 2970.93,-517 2970.93,-523 2964.93,-529 2958.93,-529 2958.93,-529 2299.62,-529 2299.62,-529 2293.62,-529 2287.62,-523 2287.62,-517 2287.62,-517 2287.62,-219 2287.62,-219 2287.62,-213 2293.62,-207 2299.62,-207"/>
<text text-anchor="middle" x="2629.27" y="-507.9" font-family="Helvetica,sans-Serif" font-size="18.00">Variant Calling</text>
</g>
<g id="clust5" class="cluster">
<title>cluster_merge_annotate</title>
<path fill="#fff6f6" stroke="#f0b6b6" d="M2747.24,-8C2747.24,-8 4760.97,-8 4760.97,-8 4766.97,-8 4772.97,-14 4772.97,-20 4772.97,-20 4772.97,-187 4772.97,-187 4772.97,-193 4766.97,-199 4760.97,-199 4760.97,-199 2747.24,-199 2747.24,-199 2741.24,-199 2735.24,-193 2735.24,-187 2735.24,-187 2735.24,-20 2735.24,-20 2735.24,-14 2741.24,-8 2747.24,-8"/>
<text text-anchor="middle" x="3754.11" y="-177.9" font-family="Helvetica,sans-Serif" font-size="18.00">Merge and Annotate Per Sample</text>
</g>
<g id="clust3" class="cluster">
<title>cluster_qc_cnv</title>
<path fill="#fffaf0" stroke="#f1d39a" d="M3247.36,-800C3247.36,-800 3973.17,-800 3973.17,-800 3979.17,-800 3985.17,-806 3985.17,-812 3985.17,-812 3985.17,-1044 3985.17,-1044 3985.17,-1050 3979.17,-1056 3973.17,-1056 3973.17,-1056 3247.36,-1056 3247.36,-1056 3241.36,-1056 3235.36,-1050 3235.36,-1044 3235.36,-1044 3235.36,-812 3235.36,-812 3235.36,-806 3241.36,-800 3247.36,-800"/>
<text text-anchor="middle" x="3610.26" y="-1034.9" font-family="Helvetica,sans-Serif" font-size="18.00">Coverage QC and CNVkit</text>
</g>
<g id="clust2" class="cluster">
<title>cluster_umi</title>
<path fill="#f4fbf6" stroke="#c8ded2" d="M1192.34,-942C1192.34,-942 2258.62,-942 2258.62,-942 2264.62,-942 2270.62,-948 2270.62,-954 2270.62,-954 2270.62,-1121 2270.62,-1121 2270.62,-1127 2264.62,-1133 2258.62,-1133 2258.62,-1133 1192.34,-1133 1192.34,-1133 1186.34,-1133 1180.34,-1127 1180.34,-1121 1180.34,-1121 1180.34,-954 1180.34,-954 1180.34,-948 1186.34,-942 1192.34,-942"/>
<text text-anchor="middle" x="1725.48" y="-1111.9" font-family="Helvetica,sans-Serif" font-size="18.00">UMI Consensus Branches</text>
</g>
<g id="clust1" class="cluster">
<title>cluster_preprocess</title>
<path fill="#f4f9ff" stroke="#b8d8f2" d="M204.81,-743C204.81,-743 1388.65,-743 1388.65,-743 1394.65,-743 1400.65,-749 1400.65,-755 1400.65,-755 1400.65,-922 1400.65,-922 1400.65,-928 1394.65,-934 1388.65,-934 1388.65,-934 204.81,-934 204.81,-934 198.81,-934 192.81,-928 192.81,-922 192.81,-922 192.81,-755 192.81,-755 192.81,-749 198.81,-743 204.81,-743"/>
<text text-anchor="middle" x="796.73" y="-912.9" font-family="Helvetica,sans-Serif" font-size="18.00">Read Preprocessing and Alignment</text>
</g>
<!-- input_fastq -->
<g id="node1" class="node">
<title>input_fastq</title>
<polygon fill="#e8f3ff" stroke="#2f3a45" stroke-width="1.8" points="165.81,-853.02 162.81,-857.02 141.81,-857.02 138.81,-853.02 0,-853.02 0,-790.98 165.81,-790.98 165.81,-853.02"/>
<text text-anchor="middle" x="82.9" y="-826.3" font-family="Helvetica,sans-Serif" font-size="16.00">Paired FASTQs</text>
<text text-anchor="middle" x="82.9" y="-806.8" font-family="Helvetica,sans-Serif" font-size="16.00">*_R1/_R2*.fastq.gz</text>
</g>
<!-- fastqc_raw -->
<g id="node3" class="node">
<title>fastqc_raw</title>
<path fill="#dff0ff" stroke="#2f3a45" stroke-width="1.8" d="M346.87,-893.02C346.87,-893.02 214.81,-893.02 214.81,-893.02 208.81,-893.02 202.81,-887.02 202.81,-881.02 202.81,-881.02 202.81,-842.98 202.81,-842.98 202.81,-836.98 208.81,-830.98 214.81,-830.98 214.81,-830.98 346.87,-830.98 346.87,-830.98 352.87,-830.98 358.87,-836.98 358.87,-842.98 358.87,-842.98 358.87,-881.02 358.87,-881.02 358.87,-887.02 352.87,-893.02 346.87,-893.02"/>
<text text-anchor="middle" x="280.84" y="-866.3" font-family="Helvetica,sans-Serif" font-size="16.00">FASTQC_RAW</text>
<text text-anchor="middle" x="280.84" y="-846.8" font-family="Helvetica,sans-Serif" font-size="16.00">pre&#45;trim read QC</text>
</g>
<!-- input_fastq&#45;&gt;fastqc_raw -->
<g id="edge1" class="edge">
<title>input_fastq&#45;&gt;fastqc_raw</title>
<path fill="none" stroke="#667085" stroke-width="1.1" d="M166.27,-842C166.27,-842 194.75,-842 194.75,-842"/>
<polygon fill="#667085" stroke="#667085" stroke-width="1.1" points="194.75,-844.17 200.95,-842 194.75,-839.83 194.75,-844.17"/>
</g>
<!-- fastp -->
<g id="node4" class="node">
<title>fastp</title>
<path fill="#dff0ff" stroke="#2f3a45" stroke-width="1.8" d="M346.24,-815.02C346.24,-815.02 215.44,-815.02 215.44,-815.02 209.44,-815.02 203.44,-809.02 203.44,-803.02 203.44,-803.02 203.44,-764.98 203.44,-764.98 203.44,-758.98 209.44,-752.98 215.44,-752.98 215.44,-752.98 346.24,-752.98 346.24,-752.98 352.24,-752.98 358.24,-758.98 358.24,-764.98 358.24,-764.98 358.24,-803.02 358.24,-803.02 358.24,-809.02 352.24,-815.02 346.24,-815.02"/>
<text text-anchor="middle" x="280.84" y="-788.3" font-family="Helvetica,sans-Serif" font-size="16.00">FASTP</text>
<text text-anchor="middle" x="280.84" y="-768.8" font-family="Helvetica,sans-Serif" font-size="16.00">trim/filter reads</text>
</g>
<!-- input_fastq&#45;&gt;fastp -->
<g id="edge2" class="edge">
<title>input_fastq&#45;&gt;fastp</title>
<path fill="none" stroke="#667085" stroke-width="1.1" d="M166.27,-803C166.27,-803 195.38,-803 195.38,-803"/>
<polygon fill="#667085" stroke="#667085" stroke-width="1.1" points="195.38,-805.17 201.58,-803 195.38,-800.83 195.38,-805.17"/>
</g>
<!-- references -->
<g id="node2" class="node">
<title>references</title>
<polygon fill="#eef6ed" stroke="#2f3a45" stroke-width="1.8" points="358.49,-595.02 203.18,-595.02 203.18,-591.02 199.18,-591.02 199.18,-587.02 203.18,-587.02 203.18,-462.98 199.18,-462.98 199.18,-458.98 203.18,-458.98 203.18,-454.98 358.49,-454.98 358.49,-595.02"/>
<polyline fill="none" stroke="#2f3a45" stroke-width="1.8" points="203.18,-591.02 207.18,-591.02 207.18,-587.02 203.18,-587.02"/>
<polyline fill="none" stroke="#2f3a45" stroke-width="1.8" points="203.18,-462.98 207.18,-462.98 207.18,-458.98 203.18,-458.98"/>
<text text-anchor="middle" x="280.84" y="-568.3" font-family="Helvetica,sans-Serif" font-size="16.00">Reference Inputs</text>
<text text-anchor="middle" x="280.84" y="-548.8" font-family="Helvetica,sans-Serif" font-size="16.00">FASTA + indexes</text>
<text text-anchor="middle" x="280.84" y="-529.3" font-family="Helvetica,sans-Serif" font-size="16.00">BED panel</text>
<text text-anchor="middle" x="280.84" y="-509.8" font-family="Helvetica,sans-Serif" font-size="16.00">PoNs + gnomAD</text>
<text text-anchor="middle" x="280.84" y="-490.3" font-family="Helvetica,sans-Serif" font-size="16.00">CNVkit reference</text>
<text text-anchor="middle" x="280.84" y="-470.8" font-family="Helvetica,sans-Serif" font-size="16.00">Annovar DBs</text>
</g>
<!-- bwa -->
<g id="node6" class="node">
<title>bwa</title>
<path fill="#dff0ff" stroke="#2f3a45" stroke-width="1.8" d="M549.3,-815.02C549.3,-815.02 414.99,-815.02 414.99,-815.02 408.99,-815.02 402.99,-809.02 402.99,-803.02 402.99,-803.02 402.99,-764.98 402.99,-764.98 402.99,-758.98 408.99,-752.98 414.99,-752.98 414.99,-752.98 549.3,-752.98 549.3,-752.98 555.3,-752.98 561.3,-758.98 561.3,-764.98 561.3,-764.98 561.3,-803.02 561.3,-803.02 561.3,-809.02 555.3,-815.02 549.3,-815.02"/>
<text text-anchor="middle" x="482.15" y="-788.3" font-family="Helvetica,sans-Serif" font-size="16.00">BWA_MEM</text>
<text text-anchor="middle" x="482.15" y="-768.8" font-family="Helvetica,sans-Serif" font-size="16.00">align to reference</text>
</g>
<!-- references&#45;&gt;bwa -->
<g id="edge3" class="edge">
<title>references&#45;&gt;bwa</title>
<path fill="none" stroke="#667085" stroke-width="1.1" d="M358.99,-585.34C415.87,-585.34 482.97,-585.34 482.97,-585.34 482.97,-585.34 482.97,-744.66 482.97,-744.66"/>
<polygon fill="#667085" stroke="#667085" stroke-width="1.1" points="480.8,-744.66 482.97,-750.86 485.14,-744.66 480.8,-744.66"/>
</g>
<!-- gencore_umi2 -->
<g id="node11" class="node">
<title>gencore_umi2</title>
<path fill="#e3f4e8" stroke="#2f3a45" stroke-width="1.8" d="M1366.27,-1092.02C1366.27,-1092.02 1214.71,-1092.02 1214.71,-1092.02 1208.71,-1092.02 1202.71,-1086.02 1202.71,-1080.02 1202.71,-1080.02 1202.71,-1041.98 1202.71,-1041.98 1202.71,-1035.98 1208.71,-1029.98 1214.71,-1029.98 1214.71,-1029.98 1366.27,-1029.98 1366.27,-1029.98 1372.27,-1029.98 1378.27,-1035.98 1378.27,-1041.98 1378.27,-1041.98 1378.27,-1080.02 1378.27,-1080.02 1378.27,-1086.02 1372.27,-1092.02 1366.27,-1092.02"/>
<text text-anchor="middle" x="1290.49" y="-1065.3" font-family="Helvetica,sans-Serif" font-size="16.00">GENCORE_UMI2</text>
<text text-anchor="middle" x="1290.49" y="-1045.8" font-family="Helvetica,sans-Serif" font-size="16.00">standard consensus</text>
</g>
<!-- references&#45;&gt;gencore_umi2 -->
<g id="edge4" class="edge">
<title>references&#45;&gt;gencore_umi2</title>
<path fill="none" stroke="#667085" stroke-width="1.1" d="M358.91,-575.66C447.84,-575.66 580.97,-575.66 580.97,-575.66 580.97,-575.66 580.97,-1071.34 580.97,-1071.34 580.97,-1071.34 1194.56,-1071.34 1194.56,-1071.34"/>
<polygon fill="#667085" stroke="#667085" stroke-width="1.1" points="1194.56,-1073.51 1200.76,-1071.34 1194.56,-1069.17 1194.56,-1073.51"/>
</g>
<!-- gencore_strict -->
<g id="node12" class="node">
<title>gencore_strict</title>
<path fill="#e3f4e8" stroke="#2f3a45" stroke-width="1.8" d="M1378.65,-1014.02C1378.65,-1014.02 1202.34,-1014.02 1202.34,-1014.02 1196.34,-1014.02 1190.34,-1008.02 1190.34,-1002.02 1190.34,-1002.02 1190.34,-963.98 1190.34,-963.98 1190.34,-957.98 1196.34,-951.98 1202.34,-951.98 1202.34,-951.98 1378.65,-951.98 1378.65,-951.98 1384.65,-951.98 1390.65,-957.98 1390.65,-963.98 1390.65,-963.98 1390.65,-1002.02 1390.65,-1002.02 1390.65,-1008.02 1384.65,-1014.02 1378.65,-1014.02"/>
<text text-anchor="middle" x="1290.49" y="-987.3" font-family="Helvetica,sans-Serif" font-size="16.00">GENCORE_STRICT</text>
<text text-anchor="middle" x="1290.49" y="-967.8" font-family="Helvetica,sans-Serif" font-size="16.00">strict duplex consensus</text>
</g>
<!-- references&#45;&gt;gencore_strict -->
<g id="edge5" class="edge">
<title>references&#45;&gt;gencore_strict</title>
<path fill="none" stroke="#667085" stroke-width="1.1" d="M358.65,-565.98C451.38,-565.98 593.97,-565.98 593.97,-565.98 593.97,-565.98 593.97,-993.34 593.97,-993.34 593.97,-993.34 1182.09,-993.34 1182.09,-993.34"/>
<polygon fill="#667085" stroke="#667085" stroke-width="1.1" points="1182.09,-995.51 1188.29,-993.34 1182.09,-991.17 1182.09,-995.51"/>
</g>
<!-- cnvkit_batch -->
<g id="node24" class="node">
<title>cnvkit_batch</title>
<path fill="#fff0cf" stroke="#2f3a45" stroke-width="1.8" d="M3403.79,-858.48C3403.79,-858.48 3272.99,-858.48 3272.99,-858.48 3266.99,-858.48 3260.99,-852.48 3260.99,-846.48 3260.99,-846.48 3260.99,-821.52 3260.99,-821.52 3260.99,-815.52 3266.99,-809.52 3272.99,-809.52 3272.99,-809.52 3403.79,-809.52 3403.79,-809.52 3409.79,-809.52 3415.79,-815.52 3415.79,-821.52 3415.79,-821.52 3415.79,-846.48 3415.79,-846.48 3415.79,-852.48 3409.79,-858.48 3403.79,-858.48"/>
<text text-anchor="middle" x="3338.39" y="-828.55" font-family="Helvetica,sans-Serif" font-size="16.00">CNVKIT_BATCH</text>
</g>
<!-- references&#45;&gt;cnvkit_batch -->
<g id="edge12" class="edge">
<title>references&#45;&gt;cnvkit_batch</title>
<path fill="none" stroke="#667085" stroke-width="1.1" d="M358.65,-556.31C822.6,-556.31 3203.97,-556.31 3203.97,-556.31 3203.97,-556.31 3203.97,-823.48 3203.97,-823.48 3203.97,-823.48 3252.72,-823.48 3252.72,-823.48"/>
<polygon fill="#667085" stroke="#667085" stroke-width="1.1" points="3252.72,-825.65 3258.92,-823.48 3252.72,-821.31 3252.72,-825.65"/>
</g>
<!-- mutect_umi2 -->
<g id="node27" class="node">
<title>mutect_umi2</title>
<path fill="#f1e6ff" stroke="#2f3a45" stroke-width="1.8" d="M2442.55,-423.48C2442.55,-423.48 2311.75,-423.48 2311.75,-423.48 2305.75,-423.48 2299.75,-417.48 2299.75,-411.48 2299.75,-411.48 2299.75,-386.52 2299.75,-386.52 2299.75,-380.52 2305.75,-374.52 2311.75,-374.52 2311.75,-374.52 2442.55,-374.52 2442.55,-374.52 2448.55,-374.52 2454.55,-380.52 2454.55,-386.52 2454.55,-386.52 2454.55,-411.48 2454.55,-411.48 2454.55,-417.48 2448.55,-423.48 2442.55,-423.48"/>
<text text-anchor="middle" x="2377.15" y="-393.55" font-family="Helvetica,sans-Serif" font-size="16.00">MUTECT_UMI2</text>
</g>
<!-- references&#45;&gt;mutect_umi2 -->
<g id="edge6" class="edge">
<title>references&#45;&gt;mutect_umi2</title>
<path fill="none" stroke="#667085" stroke-width="1.1" d="M319.97,-454.78C319.97,-422.32 319.97,-390.84 319.97,-390.84 319.97,-390.84 2291.46,-390.84 2291.46,-390.84"/>
<polygon fill="#667085" stroke="#667085" stroke-width="1.1" points="2291.46,-393.01 2297.66,-390.84 2291.46,-388.67 2291.46,-393.01"/>
</g>
<!-- mutect_strict -->
<g id="node28" class="node">
<title>mutect_strict</title>
<path fill="#f1e6ff" stroke="#2f3a45" stroke-width="1.8" d="M2443.18,-358.48C2443.18,-358.48 2311.12,-358.48 2311.12,-358.48 2305.12,-358.48 2299.12,-352.48 2299.12,-346.48 2299.12,-346.48 2299.12,-321.52 2299.12,-321.52 2299.12,-315.52 2305.12,-309.52 2311.12,-309.52 2311.12,-309.52 2443.18,-309.52 2443.18,-309.52 2449.18,-309.52 2455.18,-315.52 2455.18,-321.52 2455.18,-321.52 2455.18,-346.48 2455.18,-346.48 2455.18,-352.48 2449.18,-358.48 2443.18,-358.48"/>
<text text-anchor="middle" x="2377.15" y="-328.55" font-family="Helvetica,sans-Serif" font-size="16.00">MUTECT_STRICT</text>
</g>
<!-- references&#45;&gt;mutect_strict -->
<g id="edge7" class="edge">
<title>references&#45;&gt;mutect_strict</title>
<path fill="none" stroke="#667085" stroke-width="1.1" d="M280.97,-454.5C280.97,-397.21 280.97,-325.84 280.97,-325.84 280.97,-325.84 2290.94,-325.84 2290.94,-325.84"/>
<polygon fill="#667085" stroke="#667085" stroke-width="1.1" points="2290.94,-328.01 2297.14,-325.84 2290.94,-323.67 2290.94,-328.01"/>
</g>
<!-- vardict_umi2 -->
<g id="node33" class="node">
<title>vardict_umi2</title>
<path fill="#f1e6ff" stroke="#2f3a45" stroke-width="1.8" d="M2442.55,-488.48C2442.55,-488.48 2311.75,-488.48 2311.75,-488.48 2305.75,-488.48 2299.75,-482.48 2299.75,-476.48 2299.75,-476.48 2299.75,-451.52 2299.75,-451.52 2299.75,-445.52 2305.75,-439.52 2311.75,-439.52 2311.75,-439.52 2442.55,-439.52 2442.55,-439.52 2448.55,-439.52 2454.55,-445.52 2454.55,-451.52 2454.55,-451.52 2454.55,-476.48 2454.55,-476.48 2454.55,-482.48 2448.55,-488.48 2442.55,-488.48"/>
<text text-anchor="middle" x="2377.15" y="-458.55" font-family="Helvetica,sans-Serif" font-size="16.00">VARDICT_UMI2</text>
</g>
<!-- references&#45;&gt;vardict_umi2 -->
<g id="edge8" class="edge">
<title>references&#45;&gt;vardict_umi2</title>
<path fill="none" stroke="#667085" stroke-width="1.1" d="M358.88,-471.73C358.88,-471.73 2291.61,-471.73 2291.61,-471.73"/>
<polygon fill="#667085" stroke="#667085" stroke-width="1.1" points="2291.61,-473.9 2297.81,-471.73 2291.61,-469.56 2291.61,-473.9"/>
</g>
<!-- vardict_strict -->
<g id="node34" class="node">
<title>vardict_strict</title>
<path fill="#f1e6ff" stroke="#2f3a45" stroke-width="1.8" d="M2444.68,-293.48C2444.68,-293.48 2309.62,-293.48 2309.62,-293.48 2303.62,-293.48 2297.62,-287.48 2297.62,-281.48 2297.62,-281.48 2297.62,-256.52 2297.62,-256.52 2297.62,-250.52 2303.62,-244.52 2309.62,-244.52 2309.62,-244.52 2444.68,-244.52 2444.68,-244.52 2450.68,-244.52 2456.68,-250.52 2456.68,-256.52 2456.68,-256.52 2456.68,-281.48 2456.68,-281.48 2456.68,-287.48 2450.68,-293.48 2444.68,-293.48"/>
<text text-anchor="middle" x="2377.15" y="-263.55" font-family="Helvetica,sans-Serif" font-size="16.00">VARDICT_STRICT</text>
</g>
<!-- references&#45;&gt;vardict_strict -->
<g id="edge9" class="edge">
<title>references&#45;&gt;vardict_strict</title>
<path fill="none" stroke="#667085" stroke-width="1.1" d="M242.97,-454.56C242.97,-376.3 242.97,-260.84 242.97,-260.84 242.97,-260.84 2289.52,-260.84 2289.52,-260.84"/>
<polygon fill="#667085" stroke="#667085" stroke-width="1.1" points="2289.52,-263.01 2295.72,-260.84 2289.52,-258.67 2289.52,-263.01"/>
</g>
<!-- table_final -->
<g id="node45" class="node">
<title>table_final</title>
<path fill="#ffe4e4" stroke="#2f3a45" stroke-width="1.8" d="M4501.03,-158.02C4501.03,-158.02 4370.23,-158.02 4370.23,-158.02 4364.23,-158.02 4358.23,-152.02 4358.23,-146.02 4358.23,-146.02 4358.23,-107.98 4358.23,-107.98 4358.23,-101.98 4364.23,-95.98 4370.23,-95.98 4370.23,-95.98 4501.03,-95.98 4501.03,-95.98 4507.03,-95.98 4513.03,-101.98 4513.03,-107.98 4513.03,-107.98 4513.03,-146.02 4513.03,-146.02 4513.03,-152.02 4507.03,-158.02 4501.03,-158.02"/>
<text text-anchor="middle" x="4435.63" y="-131.3" font-family="Helvetica,sans-Serif" font-size="16.00">TABLE_FINAL</text>
<text text-anchor="middle" x="4435.63" y="-111.8" font-family="Helvetica,sans-Serif" font-size="16.00">Annovar</text>
</g>
<!-- references&#45;&gt;table_final -->
<g id="edge10" class="edge">
<title>references&#45;&gt;table_final</title>
<path fill="none" stroke="#667085" stroke-width="1.1" d="M358.76,-536.95C928.99,-536.95 4435.97,-536.95 4435.97,-536.95 4435.97,-536.95 4435.97,-166.35 4435.97,-166.35"/>
<polygon fill="#667085" stroke="#667085" stroke-width="1.1" points="4438.14,-166.35 4435.97,-160.15 4433.8,-166.35 4438.14,-166.35"/>
</g>
<!-- table_marked -->
<g id="node50" class="node">
<title>table_marked</title>
<path fill="#edf0f5" stroke="#2f3a45" stroke-width="1.8" d="M3636.23,-707.02C3636.23,-707.02 3505.43,-707.02 3505.43,-707.02 3499.43,-707.02 3493.43,-701.02 3493.43,-695.02 3493.43,-695.02 3493.43,-656.98 3493.43,-656.98 3493.43,-650.98 3499.43,-644.98 3505.43,-644.98 3505.43,-644.98 3636.23,-644.98 3636.23,-644.98 3642.23,-644.98 3648.23,-650.98 3648.23,-656.98 3648.23,-656.98 3648.23,-695.02 3648.23,-695.02 3648.23,-701.02 3642.23,-707.02 3636.23,-707.02"/>
<text text-anchor="middle" x="3570.83" y="-680.3" font-family="Helvetica,sans-Serif" font-size="16.00">TABLE_MARKED</text>
<text text-anchor="middle" x="3570.83" y="-660.8" font-family="Helvetica,sans-Serif" font-size="16.00">Annovar</text>
</g>
<!-- references&#45;&gt;table_marked -->
<g id="edge11" class="edge">
<title>references&#45;&gt;table_marked</title>
<path fill="none" stroke="#667085" stroke-width="1.1" d="M358.92,-546.63C857.16,-546.63 3570.97,-546.63 3570.97,-546.63 3570.97,-546.63 3570.97,-636.82 3570.97,-636.82"/>
<polygon fill="#667085" stroke="#667085" stroke-width="1.1" points="3568.8,-636.82 3570.97,-643.02 3573.14,-636.82 3568.8,-636.82"/>
</g>
<!-- multiqc -->
<g id="node52" class="node">
<title>multiqc</title>
<path fill="#edf0f5" stroke="#2f3a45" stroke-width="1.8" d="M4262.85,-725.02C4262.85,-725.02 4084.29,-725.02 4084.29,-725.02 4078.29,-725.02 4072.29,-719.02 4072.29,-713.02 4072.29,-713.02 4072.29,-674.98 4072.29,-674.98 4072.29,-668.98 4078.29,-662.98 4084.29,-662.98 4084.29,-662.98 4262.85,-662.98 4262.85,-662.98 4268.85,-662.98 4274.85,-668.98 4274.85,-674.98 4274.85,-674.98 4274.85,-713.02 4274.85,-713.02 4274.85,-719.02 4268.85,-725.02 4262.85,-725.02"/>
<text text-anchor="middle" x="4173.57" y="-698.3" font-family="Helvetica,sans-Serif" font-size="16.00">MULTIQC</text>
<text text-anchor="middle" x="4173.57" y="-678.8" font-family="Helvetica,sans-Serif" font-size="16.00">interactive HTML report</text>
</g>
<!-- fastqc_raw&#45;&gt;multiqc -->
<g id="edge66" class="edge">
<title>fastqc_raw&#45;&gt;multiqc</title>
<path fill="none" stroke="#667085" stroke-width="1.1" stroke-dasharray="5,2" d="M359.24,-862C370.29,-862 377.97,-862 377.97,-862 377.97,-862 377.97,-711.52 377.97,-711.52 377.97,-711.52 4064.18,-711.52 4064.18,-711.52"/>
<polygon fill="#667085" stroke="#667085" stroke-width="1.1" points="4064.18,-713.69 4070.38,-711.52 4064.18,-709.35 4064.18,-713.69"/>
<text text-anchor="middle" x="2028.81" y="-1288.8" font-family="Helvetica,sans-Serif" font-size="11.00">raw FastQC</text>
</g>
<!-- fastqc_trimmed -->
<g id="node5" class="node">
<title>fastqc_trimmed</title>
<path fill="#dff0ff" stroke="#2f3a45" stroke-width="1.8" d="M556.43,-893.02C556.43,-893.02 407.87,-893.02 407.87,-893.02 401.87,-893.02 395.87,-887.02 395.87,-881.02 395.87,-881.02 395.87,-842.98 395.87,-842.98 395.87,-836.98 401.87,-830.98 407.87,-830.98 407.87,-830.98 556.43,-830.98 556.43,-830.98 562.43,-830.98 568.43,-836.98 568.43,-842.98 568.43,-842.98 568.43,-881.02 568.43,-881.02 568.43,-887.02 562.43,-893.02 556.43,-893.02"/>
<text text-anchor="middle" x="482.15" y="-866.3" font-family="Helvetica,sans-Serif" font-size="16.00">FASTQC_TRIMMED</text>
<text text-anchor="middle" x="482.15" y="-846.8" font-family="Helvetica,sans-Serif" font-size="16.00">post&#45;trim read QC</text>
</g>
<!-- fastp&#45;&gt;fastqc_trimmed -->
<g id="edge13" class="edge">
<title>fastp&#45;&gt;fastqc_trimmed</title>
<path fill="none" stroke="#667085" stroke-width="1.1" d="M358.64,-794.34C381.24,-794.34 399.97,-794.34 399.97,-794.34 399.97,-794.34 399.97,-822.68 399.97,-822.68"/>
<polygon fill="#667085" stroke="#667085" stroke-width="1.1" points="397.8,-822.68 399.97,-828.88 402.14,-822.68 397.8,-822.68"/>
</g>
<!-- fastp&#45;&gt;bwa -->
<g id="edge14" class="edge">
<title>fastp&#45;&gt;bwa</title>
<path fill="none" stroke="#667085" stroke-width="1.1" d="M358.67,-773.66C358.67,-773.66 394.67,-773.66 394.67,-773.66"/>
<polygon fill="#667085" stroke="#667085" stroke-width="1.1" points="394.67,-775.83 400.87,-773.66 394.67,-771.49 394.67,-775.83"/>
</g>
<!-- fastp&#45;&gt;multiqc -->
<g id="edge68" class="edge">
<title>fastp&#45;&gt;multiqc</title>
<path fill="none" stroke="#667085" stroke-width="1.1" stroke-dasharray="5,2" d="M280.97,-752.74C280.97,-732.26 280.97,-709.27 280.97,-709.27 280.97,-709.27 4064.09,-709.27 4064.09,-709.27"/>
<polygon fill="#667085" stroke="#667085" stroke-width="1.1" points="4064.09,-711.44 4070.29,-709.27 4064.09,-707.1 4064.09,-711.44"/>
<text text-anchor="middle" x="2028.81" y="-1253.8" font-family="Helvetica,sans-Serif" font-size="11.00">fastp JSON/HTML</text>
</g>
<!-- fastqc_trimmed&#45;&gt;multiqc -->
<g id="edge67" class="edge">
<title>fastqc_trimmed&#45;&gt;multiqc</title>
<path fill="none" stroke="#667085" stroke-width="1.1" stroke-dasharray="5,2" d="M564.97,-830.56C564.97,-787.05 564.97,-713.77 564.97,-713.77 564.97,-713.77 4064,-713.77 4064,-713.77"/>
<polygon fill="#667085" stroke="#667085" stroke-width="1.1" points="4064,-715.94 4070.2,-713.77 4064,-711.6 4064,-715.94"/>
<text text-anchor="middle" x="2175.47" y="-1214.8" font-family="Helvetica,sans-Serif" font-size="11.00">trimmed FastQC</text>
</g>
<!-- samtools_view -->
<g id="node7" class="node">
<title>samtools_view</title>
<path fill="#dff0ff" stroke="#2f3a45" stroke-width="1.8" d="M757.74,-854.02C757.74,-854.02 617.43,-854.02 617.43,-854.02 611.43,-854.02 605.43,-848.02 605.43,-842.02 605.43,-842.02 605.43,-803.98 605.43,-803.98 605.43,-797.98 611.43,-791.98 617.43,-791.98 617.43,-791.98 757.74,-791.98 757.74,-791.98 763.74,-791.98 769.74,-797.98 769.74,-803.98 769.74,-803.98 769.74,-842.02 769.74,-842.02 769.74,-848.02 763.74,-854.02 757.74,-854.02"/>
<text text-anchor="middle" x="687.58" y="-827.3" font-family="Helvetica,sans-Serif" font-size="16.00">SAMTOOLS_VIEW</text>
<text text-anchor="middle" x="687.58" y="-807.8" font-family="Helvetica,sans-Serif" font-size="16.00">SAM &#45;&gt; BAM</text>
</g>
<!-- bwa&#45;&gt;samtools_view -->
<g id="edge15" class="edge">
<title>bwa&#45;&gt;samtools_view</title>
<path fill="none" stroke="#667085" stroke-width="1.1" d="M561.58,-803.5C561.58,-803.5 597.11,-803.5 597.11,-803.5"/>
<polygon fill="#667085" stroke="#667085" stroke-width="1.1" points="597.11,-805.67 603.31,-803.5 597.11,-801.33 597.11,-805.67"/>
</g>
<!-- sort_pre_umi -->
<g id="node8" class="node">
<title>sort_pre_umi</title>
<path fill="#dff0ff" stroke="#2f3a45" stroke-width="1.8" d="M949.54,-878.02C949.54,-878.02 818.74,-878.02 818.74,-878.02 812.74,-878.02 806.74,-872.02 806.74,-866.02 806.74,-866.02 806.74,-827.98 806.74,-827.98 806.74,-821.98 812.74,-815.98 818.74,-815.98 818.74,-815.98 949.54,-815.98 949.54,-815.98 955.54,-815.98 961.54,-821.98 961.54,-827.98 961.54,-827.98 961.54,-866.02 961.54,-866.02 961.54,-872.02 955.54,-878.02 949.54,-878.02"/>
<text text-anchor="middle" x="884.14" y="-851.3" font-family="Helvetica,sans-Serif" font-size="16.00">SORT_PRE_UMI</text>
<text text-anchor="middle" x="884.14" y="-831.8" font-family="Helvetica,sans-Serif" font-size="16.00">coordinate sort</text>
</g>
<!-- samtools_view&#45;&gt;sort_pre_umi -->
<g id="edge16" class="edge">
<title>samtools_view&#45;&gt;sort_pre_umi</title>
<path fill="none" stroke="#667085" stroke-width="1.1" d="M770.09,-835C770.09,-835 798.38,-835 798.38,-835"/>
<polygon fill="#667085" stroke="#667085" stroke-width="1.1" points="798.38,-837.17 804.58,-835 798.38,-832.83 798.38,-837.17"/>
</g>
<!-- index_pre_umi -->
<g id="node9" class="node">
<title>index_pre_umi</title>
<path fill="#dff0ff" stroke="#2f3a45" stroke-width="1.8" d="M1141.34,-893.02C1141.34,-893.02 1010.54,-893.02 1010.54,-893.02 1004.54,-893.02 998.54,-887.02 998.54,-881.02 998.54,-881.02 998.54,-842.98 998.54,-842.98 998.54,-836.98 1004.54,-830.98 1010.54,-830.98 1010.54,-830.98 1141.34,-830.98 1141.34,-830.98 1147.34,-830.98 1153.34,-836.98 1153.34,-842.98 1153.34,-842.98 1153.34,-881.02 1153.34,-881.02 1153.34,-887.02 1147.34,-893.02 1141.34,-893.02"/>
<text text-anchor="middle" x="1075.94" y="-866.3" font-family="Helvetica,sans-Serif" font-size="16.00">INDEX_PRE_UMI</text>
<text text-anchor="middle" x="1075.94" y="-846.8" font-family="Helvetica,sans-Serif" font-size="16.00">BAM index</text>
</g>
<!-- sort_pre_umi&#45;&gt;index_pre_umi -->
<g id="edge17" class="edge">
<title>sort_pre_umi&#45;&gt;index_pre_umi</title>
<path fill="none" stroke="#667085" stroke-width="1.1" d="M961.88,-854.5C961.88,-854.5 990.23,-854.5 990.23,-854.5"/>
<polygon fill="#667085" stroke="#667085" stroke-width="1.1" points="990.23,-856.67 996.43,-854.5 990.23,-852.33 990.23,-856.67"/>
</g>
<!-- flagstat -->
<g id="node10" class="node">
<title>flagstat</title>
<path fill="#f7fbff" stroke="#2f3a45" stroke-width="1.8" d="M1378.65,-893.02C1378.65,-893.02 1202.34,-893.02 1202.34,-893.02 1196.34,-893.02 1190.34,-887.02 1190.34,-881.02 1190.34,-881.02 1190.34,-842.98 1190.34,-842.98 1190.34,-836.98 1196.34,-830.98 1202.34,-830.98 1202.34,-830.98 1378.65,-830.98 1378.65,-830.98 1384.65,-830.98 1390.65,-836.98 1390.65,-842.98 1390.65,-842.98 1390.65,-881.02 1390.65,-881.02 1390.65,-887.02 1384.65,-893.02 1378.65,-893.02"/>
<text text-anchor="middle" x="1290.49" y="-866.3" font-family="Helvetica,sans-Serif" font-size="16.00">SAMTOOLS_FLAGSTAT</text>
<text text-anchor="middle" x="1290.49" y="-846.8" font-family="Helvetica,sans-Serif" font-size="16.00">alignment QC</text>
</g>
<!-- index_pre_umi&#45;&gt;flagstat -->
<g id="edge18" class="edge">
<title>index_pre_umi&#45;&gt;flagstat</title>
<path fill="none" stroke="#667085" stroke-width="1.1" d="M1153.7,-862C1153.7,-862 1182.01,-862 1182.01,-862"/>
<polygon fill="#667085" stroke="#667085" stroke-width="1.1" points="1182.01,-864.17 1188.21,-862 1182.01,-859.83 1182.01,-864.17"/>
</g>
<!-- index_pre_umi&#45;&gt;gencore_umi2 -->
<g id="edge20" class="edge">
<title>index_pre_umi&#45;&gt;gencore_umi2</title>
<path fill="none" stroke="#667085" stroke-width="1.1" d="M1037.97,-893.15C1037.97,-946.74 1037.97,-1050.66 1037.97,-1050.66 1037.97,-1050.66 1194.66,-1050.66 1194.66,-1050.66"/>
<polygon fill="#667085" stroke="#667085" stroke-width="1.1" points="1194.66,-1052.83 1200.86,-1050.66 1194.66,-1048.49 1194.66,-1052.83"/>
</g>
<!-- index_pre_umi&#45;&gt;gencore_strict -->
<g id="edge21" class="edge">
<title>index_pre_umi&#45;&gt;gencore_strict</title>
<path fill="none" stroke="#667085" stroke-width="1.1" d="M1075.97,-893.41C1075.97,-926.13 1075.97,-972.66 1075.97,-972.66 1075.97,-972.66 1182.28,-972.66 1182.28,-972.66"/>
<polygon fill="#667085" stroke="#667085" stroke-width="1.1" points="1182.28,-974.83 1188.48,-972.66 1182.28,-970.49 1182.28,-974.83"/>
</g>
<!-- mosdepth_before -->
<g id="node21" class="node">
<title>mosdepth_before</title>
<path fill="#fff0cf" stroke="#2f3a45" stroke-width="1.8" d="M3419.42,-1015.02C3419.42,-1015.02 3257.36,-1015.02 3257.36,-1015.02 3251.36,-1015.02 3245.36,-1009.02 3245.36,-1003.02 3245.36,-1003.02 3245.36,-964.98 3245.36,-964.98 3245.36,-958.98 3251.36,-952.98 3257.36,-952.98 3257.36,-952.98 3419.42,-952.98 3419.42,-952.98 3425.42,-952.98 3431.42,-958.98 3431.42,-964.98 3431.42,-964.98 3431.42,-1003.02 3431.42,-1003.02 3431.42,-1009.02 3425.42,-1015.02 3419.42,-1015.02"/>
<text text-anchor="middle" x="3338.39" y="-988.3" font-family="Helvetica,sans-Serif" font-size="16.00">MOSDEPTH_BEFORE</text>
<text text-anchor="middle" x="3338.39" y="-968.8" font-family="Helvetica,sans-Serif" font-size="16.00">pre&#45;UMI coverage</text>
</g>
<!-- index_pre_umi&#45;&gt;mosdepth_before -->
<g id="edge19" class="edge">
<title>index_pre_umi&#45;&gt;mosdepth_before</title>
<path fill="none" stroke="#667085" stroke-width="1.1" d="M1114.97,-893.19C1114.97,-916.55 1114.97,-944.5 1114.97,-944.5 1114.97,-944.5 3338.97,-944.5 3338.97,-944.5 3338.97,-944.5 3338.97,-945.3 3338.97,-945.3"/>
<polygon fill="#667085" stroke="#667085" stroke-width="1.1" points="3336.8,-944.63 3338.97,-950.83 3341.14,-944.63 3336.8,-944.63"/>
</g>
<!-- stats_summary -->
<g id="node23" class="node">
<title>stats_summary</title>
<path fill="#fff0cf" stroke="#2f3a45" stroke-width="1.8" d="M3640.61,-872.02C3640.61,-872.02 3501.05,-872.02 3501.05,-872.02 3495.05,-872.02 3489.05,-866.02 3489.05,-860.02 3489.05,-860.02 3489.05,-821.98 3489.05,-821.98 3489.05,-815.98 3495.05,-809.98 3501.05,-809.98 3501.05,-809.98 3640.61,-809.98 3640.61,-809.98 3646.61,-809.98 3652.61,-815.98 3652.61,-821.98 3652.61,-821.98 3652.61,-860.02 3652.61,-860.02 3652.61,-866.02 3646.61,-872.02 3640.61,-872.02"/>
<text text-anchor="middle" x="3570.83" y="-845.3" font-family="Helvetica,sans-Serif" font-size="16.00">STATS_SUMMARY</text>
<text text-anchor="middle" x="3570.83" y="-825.8" font-family="Helvetica,sans-Serif" font-size="16.00">sample statistics</text>
</g>
<!-- flagstat&#45;&gt;stats_summary -->
<g id="edge65" class="edge">
<title>flagstat&#45;&gt;stats_summary</title>
<path fill="none" stroke="#667085" stroke-width="1.1" d="M1391.05,-861.87C1391.05,-861.87 3480.72,-861.87 3480.72,-861.87"/>
<polygon fill="#667085" stroke="#667085" stroke-width="1.1" points="3480.72,-864.04 3486.92,-861.87 3480.72,-859.7 3480.72,-864.04"/>
</g>
<!-- flagstat&#45;&gt;multiqc -->
<g id="edge69" class="edge">
<title>flagstat&#45;&gt;multiqc</title>
<path fill="none" stroke="#667085" stroke-width="1.1" stroke-dasharray="5,2" d="M1290.97,-830.68C1290.97,-787.79 1290.97,-716.02 1290.97,-716.02 1290.97,-716.02 4063.96,-716.02 4063.96,-716.02"/>
<polygon fill="#667085" stroke="#667085" stroke-width="1.1" points="4063.96,-718.19 4070.16,-716.02 4063.96,-713.85 4063.96,-718.19"/>
<text text-anchor="middle" x="2600.96" y="-978.8" font-family="Helvetica,sans-Serif" font-size="11.00">flagstat</text>
</g>
<!-- sort_umi2 -->
<g id="node13" class="node">
<title>sort_umi2</title>
<path fill="#e3f4e8" stroke="#2f3a45" stroke-width="1.8" d="M1570.45,-1065.48C1570.45,-1065.48 1439.65,-1065.48 1439.65,-1065.48 1433.65,-1065.48 1427.65,-1059.48 1427.65,-1053.48 1427.65,-1053.48 1427.65,-1028.52 1427.65,-1028.52 1427.65,-1022.52 1433.65,-1016.52 1439.65,-1016.52 1439.65,-1016.52 1570.45,-1016.52 1570.45,-1016.52 1576.45,-1016.52 1582.45,-1022.52 1582.45,-1028.52 1582.45,-1028.52 1582.45,-1053.48 1582.45,-1053.48 1582.45,-1059.48 1576.45,-1065.48 1570.45,-1065.48"/>
<text text-anchor="middle" x="1505.05" y="-1035.55" font-family="Helvetica,sans-Serif" font-size="16.00">SORT_UMI2</text>
</g>
<!-- gencore_umi2&#45;&gt;sort_umi2 -->
<g id="edge22" class="edge">
<title>gencore_umi2&#45;&gt;sort_umi2</title>
<path fill="none" stroke="#667085" stroke-width="1.1" d="M1378.69,-1047.73C1378.69,-1047.73 1419.29,-1047.73 1419.29,-1047.73"/>
<polygon fill="#667085" stroke="#667085" stroke-width="1.1" points="1419.29,-1049.9 1425.49,-1047.73 1419.29,-1045.56 1419.29,-1049.9"/>
</g>
<!-- gencore_umi2&#45;&gt;multiqc -->
<g id="edge72" class="edge">
<title>gencore_umi2&#45;&gt;multiqc</title>
<path fill="none" stroke="#667085" stroke-width="1.1" stroke-dasharray="5,2" d="M1378.76,-1078.75C1862.87,-1078.75 4173.97,-1078.75 4173.97,-1078.75 4173.97,-1078.75 4173.97,-733.35 4173.97,-733.35"/>
<polygon fill="#667085" stroke="#667085" stroke-width="1.1" points="4176.14,-733.35 4173.97,-727.15 4171.8,-733.35 4176.14,-733.35"/>
<text text-anchor="middle" x="2600.96" y="-1139.8" font-family="Helvetica,sans-Serif" font-size="11.00">GenCore JSON</text>
</g>
<!-- sort_strict -->
<g id="node14" class="node">
<title>sort_strict</title>
<path fill="#e3f4e8" stroke="#2f3a45" stroke-width="1.8" d="M1570.45,-1000.48C1570.45,-1000.48 1439.65,-1000.48 1439.65,-1000.48 1433.65,-1000.48 1427.65,-994.48 1427.65,-988.48 1427.65,-988.48 1427.65,-963.52 1427.65,-963.52 1427.65,-957.52 1433.65,-951.52 1439.65,-951.52 1439.65,-951.52 1570.45,-951.52 1570.45,-951.52 1576.45,-951.52 1582.45,-957.52 1582.45,-963.52 1582.45,-963.52 1582.45,-988.48 1582.45,-988.48 1582.45,-994.48 1576.45,-1000.48 1570.45,-1000.48"/>
<text text-anchor="middle" x="1505.05" y="-970.55" font-family="Helvetica,sans-Serif" font-size="16.00">SORT_STRICT</text>
</g>
<!-- gencore_strict&#45;&gt;sort_strict -->
<g id="edge26" class="edge">
<title>gencore_strict&#45;&gt;sort_strict</title>
<path fill="none" stroke="#667085" stroke-width="1.1" d="M1390.86,-984.31C1390.86,-984.31 1419.37,-984.31 1419.37,-984.31"/>
<polygon fill="#667085" stroke="#667085" stroke-width="1.1" points="1419.37,-986.48 1425.57,-984.31 1419.37,-982.14 1419.37,-986.48"/>
</g>
<!-- gencore_strict&#45;&gt;multiqc -->
<g id="edge73" class="edge">
<title>gencore_strict&#45;&gt;multiqc</title>
<path fill="none" stroke="#667085" stroke-width="1.1" stroke-dasharray="5,2" d="M1391.04,-968.15C1402.39,-968.15 1409.97,-968.15 1409.97,-968.15 1409.97,-968.15 1409.97,-718.27 1409.97,-718.27 1409.97,-718.27 4064.07,-718.27 4064.07,-718.27"/>
<polygon fill="#667085" stroke="#667085" stroke-width="1.1" points="4064.07,-720.44 4070.27,-718.27 4064.07,-716.1 4064.07,-720.44"/>
<text text-anchor="middle" x="2600.96" y="-1093.8" font-family="Helvetica,sans-Serif" font-size="11.00">GenCore JSON</text>
</g>
<!-- index_umi2 -->
<g id="node15" class="node">
<title>index_umi2</title>
<path fill="#e3f4e8" stroke="#2f3a45" stroke-width="1.8" d="M1762.25,-1065.48C1762.25,-1065.48 1631.45,-1065.48 1631.45,-1065.48 1625.45,-1065.48 1619.45,-1059.48 1619.45,-1053.48 1619.45,-1053.48 1619.45,-1028.52 1619.45,-1028.52 1619.45,-1022.52 1625.45,-1016.52 1631.45,-1016.52 1631.45,-1016.52 1762.25,-1016.52 1762.25,-1016.52 1768.25,-1016.52 1774.25,-1022.52 1774.25,-1028.52 1774.25,-1028.52 1774.25,-1053.48 1774.25,-1053.48 1774.25,-1059.48 1768.25,-1065.48 1762.25,-1065.48"/>
<text text-anchor="middle" x="1696.85" y="-1035.55" font-family="Helvetica,sans-Serif" font-size="16.00">INDEX_UMI2</text>
</g>
<!-- sort_umi2&#45;&gt;index_umi2 -->
<g id="edge23" class="edge">
<title>sort_umi2&#45;&gt;index_umi2</title>
<path fill="none" stroke="#667085" stroke-width="1.1" d="M1582.79,-1041C1582.79,-1041 1611.14,-1041 1611.14,-1041"/>
<polygon fill="#667085" stroke="#667085" stroke-width="1.1" points="1611.14,-1043.17 1617.34,-1041 1611.14,-1038.83 1611.14,-1043.17"/>
</g>
<!-- index_strict -->
<g id="node16" class="node">
<title>index_strict</title>
<path fill="#e3f4e8" stroke="#2f3a45" stroke-width="1.8" d="M1762.25,-1000.48C1762.25,-1000.48 1631.45,-1000.48 1631.45,-1000.48 1625.45,-1000.48 1619.45,-994.48 1619.45,-988.48 1619.45,-988.48 1619.45,-963.52 1619.45,-963.52 1619.45,-957.52 1625.45,-951.52 1631.45,-951.52 1631.45,-951.52 1762.25,-951.52 1762.25,-951.52 1768.25,-951.52 1774.25,-957.52 1774.25,-963.52 1774.25,-963.52 1774.25,-988.48 1774.25,-988.48 1774.25,-994.48 1768.25,-1000.48 1762.25,-1000.48"/>
<text text-anchor="middle" x="1696.85" y="-970.55" font-family="Helvetica,sans-Serif" font-size="16.00">INDEX_STRICT</text>
</g>
<!-- sort_strict&#45;&gt;index_strict -->
<g id="edge27" class="edge">
<title>sort_strict&#45;&gt;index_strict</title>
<path fill="none" stroke="#667085" stroke-width="1.1" d="M1582.79,-976C1582.79,-976 1611.14,-976 1611.14,-976"/>
<polygon fill="#667085" stroke="#667085" stroke-width="1.1" points="1611.14,-978.17 1617.34,-976 1611.14,-973.83 1611.14,-978.17"/>
</g>
<!-- add_rg_umi2 -->
<g id="node17" class="node">
<title>add_rg_umi2</title>
<path fill="#e3f4e8" stroke="#2f3a45" stroke-width="1.8" d="M1954.68,-1065.48C1954.68,-1065.48 1823.88,-1065.48 1823.88,-1065.48 1817.88,-1065.48 1811.88,-1059.48 1811.88,-1053.48 1811.88,-1053.48 1811.88,-1028.52 1811.88,-1028.52 1811.88,-1022.52 1817.88,-1016.52 1823.88,-1016.52 1823.88,-1016.52 1954.68,-1016.52 1954.68,-1016.52 1960.68,-1016.52 1966.68,-1022.52 1966.68,-1028.52 1966.68,-1028.52 1966.68,-1053.48 1966.68,-1053.48 1966.68,-1059.48 1960.68,-1065.48 1954.68,-1065.48"/>
<text text-anchor="middle" x="1889.28" y="-1035.55" font-family="Helvetica,sans-Serif" font-size="16.00">ADD_RG_UMI2</text>
</g>
<!-- index_umi2&#45;&gt;add_rg_umi2 -->
<g id="edge24" class="edge">
<title>index_umi2&#45;&gt;add_rg_umi2</title>
<path fill="none" stroke="#667085" stroke-width="1.1" d="M1774.56,-1041C1774.56,-1041 1803.72,-1041 1803.72,-1041"/>
<polygon fill="#667085" stroke="#667085" stroke-width="1.1" points="1803.72,-1043.17 1809.92,-1041 1803.72,-1038.83 1803.72,-1043.17"/>
</g>
<!-- add_rg_strict -->
<g id="node18" class="node">
<title>add_rg_strict</title>
<path fill="#e3f4e8" stroke="#2f3a45" stroke-width="1.8" d="M1955.31,-1000.48C1955.31,-1000.48 1823.25,-1000.48 1823.25,-1000.48 1817.25,-1000.48 1811.25,-994.48 1811.25,-988.48 1811.25,-988.48 1811.25,-963.52 1811.25,-963.52 1811.25,-957.52 1817.25,-951.52 1823.25,-951.52 1823.25,-951.52 1955.31,-951.52 1955.31,-951.52 1961.31,-951.52 1967.31,-957.52 1967.31,-963.52 1967.31,-963.52 1967.31,-988.48 1967.31,-988.48 1967.31,-994.48 1961.31,-1000.48 1955.31,-1000.48"/>
<text text-anchor="middle" x="1889.28" y="-970.55" font-family="Helvetica,sans-Serif" font-size="16.00">ADD_RG_STRICT</text>
</g>
<!-- index_strict&#45;&gt;add_rg_strict -->
<g id="edge28" class="edge">
<title>index_strict&#45;&gt;add_rg_strict</title>
<path fill="none" stroke="#667085" stroke-width="1.1" d="M1774.56,-976C1774.56,-976 1803.1,-976 1803.1,-976"/>
<polygon fill="#667085" stroke="#667085" stroke-width="1.1" points="1803.1,-978.17 1809.3,-976 1803.1,-973.83 1803.1,-978.17"/>
</g>
<!-- index_rg_umi2 -->
<g id="node19" class="node">
<title>index_rg_umi2</title>
<path fill="#e3f4e8" stroke="#2f3a45" stroke-width="1.8" d="M2241.12,-1065.48C2241.12,-1065.48 2109.81,-1065.48 2109.81,-1065.48 2103.81,-1065.48 2097.81,-1059.48 2097.81,-1053.48 2097.81,-1053.48 2097.81,-1028.52 2097.81,-1028.52 2097.81,-1022.52 2103.81,-1016.52 2109.81,-1016.52 2109.81,-1016.52 2241.12,-1016.52 2241.12,-1016.52 2247.12,-1016.52 2253.12,-1022.52 2253.12,-1028.52 2253.12,-1028.52 2253.12,-1053.48 2253.12,-1053.48 2253.12,-1059.48 2247.12,-1065.48 2241.12,-1065.48"/>
<text text-anchor="middle" x="2175.47" y="-1035.55" font-family="Helvetica,sans-Serif" font-size="16.00">INDEX_RG_UMI2</text>
</g>
<!-- add_rg_umi2&#45;&gt;index_rg_umi2 -->
<g id="edge25" class="edge">
<title>add_rg_umi2&#45;&gt;index_rg_umi2</title>
<path fill="none" stroke="#667085" stroke-width="1.1" d="M1967.1,-1041C1967.1,-1041 2089.79,-1041 2089.79,-1041"/>
<polygon fill="#667085" stroke="#667085" stroke-width="1.1" points="2089.79,-1043.17 2095.99,-1041 2089.79,-1038.83 2089.79,-1043.17"/>
</g>
<!-- index_rg_strict -->
<g id="node20" class="node">
<title>index_rg_strict</title>
<path fill="#e3f4e8" stroke="#2f3a45" stroke-width="1.8" d="M2248.62,-1000.48C2248.62,-1000.48 2102.31,-1000.48 2102.31,-1000.48 2096.31,-1000.48 2090.31,-994.48 2090.31,-988.48 2090.31,-988.48 2090.31,-963.52 2090.31,-963.52 2090.31,-957.52 2096.31,-951.52 2102.31,-951.52 2102.31,-951.52 2248.62,-951.52 2248.62,-951.52 2254.62,-951.52 2260.62,-957.52 2260.62,-963.52 2260.62,-963.52 2260.62,-988.48 2260.62,-988.48 2260.62,-994.48 2254.62,-1000.48 2248.62,-1000.48"/>
<text text-anchor="middle" x="2175.47" y="-970.55" font-family="Helvetica,sans-Serif" font-size="16.00">INDEX_RG_STRICT</text>
</g>
<!-- add_rg_strict&#45;&gt;index_rg_strict -->
<g id="edge29" class="edge">
<title>add_rg_strict&#45;&gt;index_rg_strict</title>
<path fill="none" stroke="#667085" stroke-width="1.1" d="M1967.48,-976C1967.48,-976 2081.95,-976 2081.95,-976"/>
<polygon fill="#667085" stroke="#667085" stroke-width="1.1" points="2081.95,-978.17 2088.15,-976 2081.95,-973.83 2081.95,-978.17"/>
</g>
<!-- mosdepth_after -->
<g id="node22" class="node">
<title>mosdepth_after</title>
<path fill="#fff0cf" stroke="#2f3a45" stroke-width="1.8" d="M3413.42,-937.02C3413.42,-937.02 3263.36,-937.02 3263.36,-937.02 3257.36,-937.02 3251.36,-931.02 3251.36,-925.02 3251.36,-925.02 3251.36,-886.98 3251.36,-886.98 3251.36,-880.98 3257.36,-874.98 3263.36,-874.98 3263.36,-874.98 3413.42,-874.98 3413.42,-874.98 3419.42,-874.98 3425.42,-880.98 3425.42,-886.98 3425.42,-886.98 3425.42,-925.02 3425.42,-925.02 3425.42,-931.02 3419.42,-937.02 3413.42,-937.02"/>
<text text-anchor="middle" x="3338.39" y="-910.3" font-family="Helvetica,sans-Serif" font-size="16.00">MOSDEPTH_AFTER</text>
<text text-anchor="middle" x="3338.39" y="-890.8" font-family="Helvetica,sans-Serif" font-size="16.00">post&#45;UMI coverage</text>
</g>
<!-- index_rg_umi2&#45;&gt;mosdepth_after -->
<g id="edge30" class="edge">
<title>index_rg_umi2&#45;&gt;mosdepth_after</title>
<path fill="none" stroke="#667085" stroke-width="1.1" d="M2253.47,-1044.5C2274.22,-1044.5 2290.97,-1044.5 2290.97,-1044.5 2290.97,-1044.5 2290.97,-915.02 2290.97,-915.02 2290.97,-915.02 3243.02,-915.02 3243.02,-915.02"/>
<polygon fill="#667085" stroke="#667085" stroke-width="1.1" points="3243.02,-917.19 3249.22,-915.02 3243.02,-912.85 3243.02,-917.19"/>
</g>
<!-- index_rg_umi2&#45;&gt;stats_summary -->
<g id="edge63" class="edge">
<title>index_rg_umi2&#45;&gt;stats_summary</title>
<path fill="none" stroke="#667085" stroke-width="1.1" d="M2253.59,-1037.5C2270.27,-1037.5 2282.97,-1037.5 2282.97,-1037.5 2282.97,-1037.5 2282.97,-865.25 2282.97,-865.25 2282.97,-865.25 3480.93,-865.25 3480.93,-865.25"/>
<polygon fill="#667085" stroke="#667085" stroke-width="1.1" points="3480.93,-867.42 3487.13,-865.25 3480.93,-863.08 3480.93,-867.42"/>
</g>
<!-- index_rg_umi2&#45;&gt;cnvkit_batch -->
<g id="edge31" class="edge">
<title>index_rg_umi2&#45;&gt;cnvkit_batch</title>
<path fill="none" stroke="#667085" stroke-width="1.1" d="M2253.41,-1030.51C2266.52,-1030.51 2275.97,-1030.51 2275.97,-1030.51 2275.97,-1030.51 2275.97,-844.73 2275.97,-844.73 2275.97,-844.73 3252.83,-844.73 3252.83,-844.73"/>
<polygon fill="#667085" stroke="#667085" stroke-width="1.1" points="3252.83,-846.9 3259.03,-844.73 3252.83,-842.56 3252.83,-846.9"/>
</g>
<!-- index_rg_umi2&#45;&gt;mutect_umi2 -->
<g id="edge34" class="edge">
<title>index_rg_umi2&#45;&gt;mutect_umi2</title>
<path fill="none" stroke="#667085" stroke-width="1.1" d="M2253.53,-1023.51C2262.75,-1023.51 2268.97,-1023.51 2268.97,-1023.51 2268.97,-1023.51 2268.97,-407.16 2268.97,-407.16 2268.97,-407.16 2291.53,-407.16 2291.53,-407.16"/>
<polygon fill="#667085" stroke="#667085" stroke-width="1.1" points="2291.53,-409.33 2297.73,-407.16 2291.53,-404.99 2291.53,-409.33"/>
</g>
<!-- index_rg_umi2&#45;&gt;vardict_umi2 -->
<g id="edge40" class="edge">
<title>index_rg_umi2&#45;&gt;vardict_umi2</title>
<path fill="none" stroke="#667085" stroke-width="1.1" d="M2253.47,-1051.49C2310.52,-1051.49 2377.97,-1051.49 2377.97,-1051.49 2377.97,-1051.49 2377.97,-496.73 2377.97,-496.73"/>
<polygon fill="#667085" stroke="#667085" stroke-width="1.1" points="2380.14,-496.73 2377.97,-490.53 2375.8,-496.73 2380.14,-496.73"/>
</g>
<!-- sample_outputs -->
<g id="node54" class="node">
<title>sample_outputs</title>
<polygon fill="#e8f3ff" stroke="#2f3a45" stroke-width="1.8" points="4266.98,-527.27 4263.98,-531.27 4242.98,-531.27 4239.98,-527.27 4080.17,-527.27 4080.17,-406.73 4266.98,-406.73 4266.98,-527.27"/>
<text text-anchor="middle" x="4173.57" y="-500.55" font-family="Helvetica,sans-Serif" font-size="16.00">Per&#45;Sample Results</text>
<text text-anchor="middle" x="4173.57" y="-481.05" font-family="Helvetica,sans-Serif" font-size="16.00">stats/</text>
<text text-anchor="middle" x="4173.57" y="-461.55" font-family="Helvetica,sans-Serif" font-size="16.00">cnvkit/</text>
<text text-anchor="middle" x="4173.57" y="-442.05" font-family="Helvetica,sans-Serif" font-size="16.00">stout_sterr/</text>
<text text-anchor="middle" x="4173.57" y="-422.55" font-family="Helvetica,sans-Serif" font-size="16.00">final CSV/VCFs/BAMs</text>
</g>
<!-- index_rg_umi2&#45;&gt;sample_outputs -->
<g id="edge88" class="edge">
<title>index_rg_umi2&#45;&gt;sample_outputs</title>
<path fill="none" stroke="#667085" stroke-width="1.1" d="M2253.21,-1058.49C2496.47,-1058.49 3226.97,-1058.49 3226.97,-1058.49 3226.97,-1058.49 3226.97,-504 3226.97,-504 3226.97,-504 4071.92,-504 4071.92,-504"/>
<polygon fill="#667085" stroke="#667085" stroke-width="1.1" points="4071.92,-506.17 4078.12,-504 4071.92,-501.83 4071.92,-506.17"/>
</g>
<!-- index_rg_strict&#45;&gt;mutect_strict -->
<g id="edge37" class="edge">
<title>index_rg_strict&#45;&gt;mutect_strict</title>
<path fill="none" stroke="#667085" stroke-width="1.1" d="M2175.97,-951.15C2175.97,-833.96 2175.97,-342.16 2175.97,-342.16 2175.97,-342.16 2290.93,-342.16 2290.93,-342.16"/>
<polygon fill="#667085" stroke="#667085" stroke-width="1.1" points="2290.93,-344.33 2297.13,-342.16 2290.93,-339.99 2290.93,-344.33"/>
</g>
<!-- index_rg_strict&#45;&gt;vardict_strict -->
<g id="edge42" class="edge">
<title>index_rg_strict&#45;&gt;vardict_strict</title>
<path fill="none" stroke="#667085" stroke-width="1.1" d="M2132.97,-951.13C2132.97,-826.64 2132.97,-277.16 2132.97,-277.16 2132.97,-277.16 2289.33,-277.16 2289.33,-277.16"/>
<polygon fill="#667085" stroke="#667085" stroke-width="1.1" points="2289.33,-279.33 2295.53,-277.16 2289.33,-274.99 2289.33,-279.33"/>
</g>
<!-- index_rg_strict&#45;&gt;sample_outputs -->
<g id="edge89" class="edge">
<title>index_rg_strict&#45;&gt;sample_outputs</title>
<path fill="none" stroke="#667085" stroke-width="1.1" d="M2218.97,-951.22C2218.97,-852.97 2218.97,-496.24 2218.97,-496.24 2218.97,-496.24 4072.09,-496.24 4072.09,-496.24"/>
<polygon fill="#667085" stroke="#667085" stroke-width="1.1" points="4072.09,-498.41 4078.29,-496.24 4072.09,-494.07 4072.09,-498.41"/>
</g>
<!-- mosdepth_before&#45;&gt;stats_summary -->
<g id="edge64" class="edge">
<title>mosdepth_before&#45;&gt;stats_summary</title>
<path fill="none" stroke="#667085" stroke-width="1.1" d="M3431.54,-973.66C3442.55,-973.66 3449.97,-973.66 3449.97,-973.66 3449.97,-973.66 3449.97,-868.63 3449.97,-868.63 3449.97,-868.63 3481.01,-868.63 3481.01,-868.63"/>
<polygon fill="#667085" stroke="#667085" stroke-width="1.1" points="3481.01,-870.81 3487.21,-868.64 3481.01,-866.47 3481.01,-870.81"/>
</g>
<!-- mosdepth_before&#45;&gt;multiqc -->
<g id="edge70" class="edge">
<title>mosdepth_before&#45;&gt;multiqc</title>
<path fill="none" stroke="#667085" stroke-width="1.1" stroke-dasharray="5,2" d="M3431.86,-994.34C3639.9,-994.34 4122.97,-994.34 4122.97,-994.34 4122.97,-994.34 4122.97,-733.16 4122.97,-733.16"/>
<polygon fill="#667085" stroke="#667085" stroke-width="1.1" points="4125.14,-733.16 4122.97,-726.96 4120.8,-733.16 4125.14,-733.16"/>
<text text-anchor="middle" x="3730.98" y="-1044.8" font-family="Helvetica,sans-Serif" font-size="11.00">coverage before</text>
</g>
<!-- mosdepth_after&#45;&gt;multiqc -->
<g id="edge71" class="edge">
<title>mosdepth_after&#45;&gt;multiqc</title>
<path fill="none" stroke="#667085" stroke-width="1.1" stroke-dasharray="5,2" d="M3420.97,-874.54C3420.97,-821.62 3420.97,-720.52 3420.97,-720.52 3420.97,-720.52 4064.21,-720.52 4064.21,-720.52"/>
<polygon fill="#667085" stroke="#667085" stroke-width="1.1" points="4064.21,-722.69 4070.41,-720.52 4064.21,-718.35 4064.21,-722.69"/>
<text text-anchor="middle" x="3730.98" y="-968.8" font-family="Helvetica,sans-Serif" font-size="11.00">coverage after</text>
</g>
<!-- keep_important -->
<g id="node53" class="node">
<title>keep_important</title>
<path fill="#edf0f5" stroke="#2f3a45" stroke-width="1.8" d="M4547.41,-707.02C4547.41,-707.02 4323.85,-707.02 4323.85,-707.02 4317.85,-707.02 4311.85,-701.02 4311.85,-695.02 4311.85,-695.02 4311.85,-656.98 4311.85,-656.98 4311.85,-650.98 4317.85,-644.98 4323.85,-644.98 4323.85,-644.98 4547.41,-644.98 4547.41,-644.98 4553.41,-644.98 4559.41,-650.98 4559.41,-656.98 4559.41,-656.98 4559.41,-695.02 4559.41,-695.02 4559.41,-701.02 4553.41,-707.02 4547.41,-707.02"/>
<text text-anchor="middle" x="4435.63" y="-680.3" font-family="Helvetica,sans-Serif" font-size="16.00">KEEP_IMPORTANT_OUTPUTS</text>
<text text-anchor="middle" x="4435.63" y="-660.8" font-family="Helvetica,sans-Serif" font-size="16.00">optional output pruning</text>
</g>
<!-- stats_summary&#45;&gt;keep_important -->
<g id="edge77" class="edge">
<title>stats_summary&#45;&gt;keep_important</title>
<path fill="none" stroke="#667085" stroke-width="1.1" d="M3653.03,-832.65C3847.38,-832.65 4318.97,-832.65 4318.97,-832.65 4318.97,-832.65 4318.97,-715.19 4318.97,-715.19"/>
<polygon fill="#667085" stroke="#667085" stroke-width="1.1" points="4321.14,-715.19 4318.97,-708.99 4316.8,-715.19 4321.14,-715.19"/>
</g>
<!-- stats_summary&#45;&gt;sample_outputs -->
<g id="edge80" class="edge">
<title>stats_summary&#45;&gt;sample_outputs</title>
<path fill="none" stroke="#667085" stroke-width="1.1" d="M3652.97,-821.31C3657.34,-821.31 3659.97,-821.31 3659.97,-821.31 3659.97,-821.31 3659.97,-511.75 3659.97,-511.75 3659.97,-511.75 4071.8,-511.75 4071.8,-511.75"/>
<polygon fill="#667085" stroke="#667085" stroke-width="1.1" points="4071.8,-513.92 4078,-511.75 4071.8,-509.58 4071.8,-513.92"/>
</g>
<!-- cnvkit_genemetrics -->
<g id="node25" class="node">
<title>cnvkit_genemetrics</title>
<path fill="#fff0cf" stroke="#2f3a45" stroke-width="1.8" d="M3661.23,-937.48C3661.23,-937.48 3480.42,-937.48 3480.42,-937.48 3474.42,-937.48 3468.42,-931.48 3468.42,-925.48 3468.42,-925.48 3468.42,-900.52 3468.42,-900.52 3468.42,-894.52 3474.42,-888.52 3480.42,-888.52 3480.42,-888.52 3661.23,-888.52 3661.23,-888.52 3667.23,-888.52 3673.23,-894.52 3673.23,-900.52 3673.23,-900.52 3673.23,-925.48 3673.23,-925.48 3673.23,-931.48 3667.23,-937.48 3661.23,-937.48"/>
<text text-anchor="middle" x="3570.83" y="-907.55" font-family="Helvetica,sans-Serif" font-size="16.00">CNVKIT_GENEMETRICS</text>
</g>
<!-- cnvkit_batch&#45;&gt;cnvkit_genemetrics -->
<g id="edge32" class="edge">
<title>cnvkit_batch&#45;&gt;cnvkit_genemetrics</title>
<path fill="none" stroke="#667085" stroke-width="1.1" d="M3416.06,-834.23C3449.89,-834.23 3481.97,-834.23 3481.97,-834.23 3481.97,-834.23 3481.97,-880.21 3481.97,-880.21"/>
<polygon fill="#667085" stroke="#667085" stroke-width="1.1" points="3479.8,-880.21 3481.97,-886.41 3484.14,-880.21 3479.8,-880.21"/>
</g>
<!-- cnvkit_scatter -->
<g id="node26" class="node">
<title>cnvkit_scatter</title>
<path fill="#fff0cf" stroke="#2f3a45" stroke-width="1.8" d="M3963.17,-906.02C3963.17,-906.02 3807.11,-906.02 3807.11,-906.02 3801.11,-906.02 3795.11,-900.02 3795.11,-894.02 3795.11,-894.02 3795.11,-855.98 3795.11,-855.98 3795.11,-849.98 3801.11,-843.98 3807.11,-843.98 3807.11,-843.98 3963.17,-843.98 3963.17,-843.98 3969.17,-843.98 3975.17,-849.98 3975.17,-855.98 3975.17,-855.98 3975.17,-894.02 3975.17,-894.02 3975.17,-900.02 3969.17,-906.02 3963.17,-906.02"/>
<text text-anchor="middle" x="3885.14" y="-879.3" font-family="Helvetica,sans-Serif" font-size="16.00">CNVKIT_SCATTER</text>
<text text-anchor="middle" x="3885.14" y="-859.8" font-family="Helvetica,sans-Serif" font-size="16.00">chr plots + summary</text>
</g>
<!-- cnvkit_genemetrics&#45;&gt;cnvkit_scatter -->
<g id="edge33" class="edge">
<title>cnvkit_genemetrics&#45;&gt;cnvkit_scatter</title>
<path fill="none" stroke="#667085" stroke-width="1.1" d="M3673.31,-897.27C3673.31,-897.27 3786.84,-897.27 3786.84,-897.27"/>
<polygon fill="#667085" stroke="#667085" stroke-width="1.1" points="3786.84,-899.44 3793.04,-897.27 3786.84,-895.1 3786.84,-899.44"/>
</g>
<!-- cnvkit_scatter&#45;&gt;multiqc -->
<g id="edge74" class="edge">
<title>cnvkit_scatter&#45;&gt;multiqc</title>
<path fill="none" stroke="#667085" stroke-width="1.1" stroke-dasharray="5,2" d="M3885.97,-843.83C3885.97,-799.29 3885.97,-722.77 3885.97,-722.77 3885.97,-722.77 4064.31,-722.77 4064.31,-722.77"/>
<polygon fill="#667085" stroke="#667085" stroke-width="1.1" points="4064.31,-724.94 4070.51,-722.77 4064.31,-720.6 4064.31,-724.94"/>
<text text-anchor="middle" x="4026.92" y="-871.8" font-family="Helvetica,sans-Serif" font-size="11.00">CNV logs</text>
</g>
<!-- cnvkit_scatter&#45;&gt;keep_important -->
<g id="edge78" class="edge">
<title>cnvkit_scatter&#45;&gt;keep_important</title>
<path fill="none" stroke="#667085" stroke-width="1.1" d="M3975.41,-878.84C4104.38,-878.84 4325.97,-878.84 4325.97,-878.84 4325.97,-878.84 4325.97,-715.11 4325.97,-715.11"/>
<polygon fill="#667085" stroke="#667085" stroke-width="1.1" points="4328.14,-715.11 4325.97,-708.91 4323.8,-715.11 4328.14,-715.11"/>
</g>
<!-- cnvkit_scatter&#45;&gt;sample_outputs -->
<g id="edge81" class="edge">
<title>cnvkit_scatter&#45;&gt;sample_outputs</title>
<path fill="none" stroke="#667085" stroke-width="1.1" d="M3975.36,-861.41C4003.34,-861.41 4026.97,-861.41 4026.97,-861.41 4026.97,-861.41 4026.97,-519.51 4026.97,-519.51 4026.97,-519.51 4072.03,-519.51 4072.03,-519.51"/>
<polygon fill="#667085" stroke="#667085" stroke-width="1.1" points="4072.03,-521.68 4078.23,-519.51 4072.03,-517.34 4072.03,-521.68"/>
</g>
<!-- filter_mutect_umi2 -->
<g id="node29" class="node">
<title>filter_mutect_umi2</title>
<path fill="#f1e6ff" stroke="#2f3a45" stroke-width="1.8" d="M2688.37,-409.48C2688.37,-409.48 2513.56,-409.48 2513.56,-409.48 2507.56,-409.48 2501.56,-403.48 2501.56,-397.48 2501.56,-397.48 2501.56,-372.52 2501.56,-372.52 2501.56,-366.52 2507.56,-360.52 2513.56,-360.52 2513.56,-360.52 2688.37,-360.52 2688.37,-360.52 2694.37,-360.52 2700.37,-366.52 2700.37,-372.52 2700.37,-372.52 2700.37,-397.48 2700.37,-397.48 2700.37,-403.48 2694.37,-409.48 2688.37,-409.48"/>
<text text-anchor="middle" x="2600.96" y="-379.55" font-family="Helvetica,sans-Serif" font-size="16.00">FILTER_MUTECT_UMI2</text>
</g>
<!-- mutect_umi2&#45;&gt;filter_mutect_umi2 -->
<g id="edge35" class="edge">
<title>mutect_umi2&#45;&gt;filter_mutect_umi2</title>
<path fill="none" stroke="#667085" stroke-width="1.1" d="M2454.8,-392C2454.8,-392 2493.51,-392 2493.51,-392"/>
<polygon fill="#667085" stroke="#667085" stroke-width="1.1" points="2493.51,-394.17 2499.71,-392 2493.51,-389.83 2493.51,-394.17"/>
</g>
<!-- filter_mutect_strict -->
<g id="node30" class="node">
<title>filter_mutect_strict</title>
<path fill="#f1e6ff" stroke="#2f3a45" stroke-width="1.8" d="M2695.87,-344.48C2695.87,-344.48 2506.06,-344.48 2506.06,-344.48 2500.06,-344.48 2494.06,-338.48 2494.06,-332.48 2494.06,-332.48 2494.06,-307.52 2494.06,-307.52 2494.06,-301.52 2500.06,-295.52 2506.06,-295.52 2506.06,-295.52 2695.87,-295.52 2695.87,-295.52 2701.87,-295.52 2707.87,-301.52 2707.87,-307.52 2707.87,-307.52 2707.87,-332.48 2707.87,-332.48 2707.87,-338.48 2701.87,-344.48 2695.87,-344.48"/>
<text text-anchor="middle" x="2600.96" y="-314.55" font-family="Helvetica,sans-Serif" font-size="16.00">FILTER_MUTECT_STRICT</text>
</g>
<!-- mutect_strict&#45;&gt;filter_mutect_strict -->
<g id="edge38" class="edge">
<title>mutect_strict&#45;&gt;filter_mutect_strict</title>
<path fill="none" stroke="#667085" stroke-width="1.1" d="M2455.43,-327C2455.43,-327 2485.75,-327 2485.75,-327"/>
<polygon fill="#667085" stroke="#667085" stroke-width="1.1" points="2485.75,-329.17 2491.95,-327 2485.75,-324.83 2485.75,-329.17"/>
</g>
<!-- norm_mutect_umi2 -->
<g id="node31" class="node">
<title>norm_mutect_umi2</title>
<path fill="#f1e6ff" stroke="#2f3a45" stroke-width="1.8" d="M2941.43,-410.02C2941.43,-410.02 2768.87,-410.02 2768.87,-410.02 2762.87,-410.02 2756.87,-404.02 2756.87,-398.02 2756.87,-398.02 2756.87,-359.98 2756.87,-359.98 2756.87,-353.98 2762.87,-347.98 2768.87,-347.98 2768.87,-347.98 2941.43,-347.98 2941.43,-347.98 2947.43,-347.98 2953.43,-353.98 2953.43,-359.98 2953.43,-359.98 2953.43,-398.02 2953.43,-398.02 2953.43,-404.02 2947.43,-410.02 2941.43,-410.02"/>
<text text-anchor="middle" x="2855.15" y="-383.3" font-family="Helvetica,sans-Serif" font-size="16.00">NORM_MUTECT_UMI2</text>
<text text-anchor="middle" x="2855.15" y="-363.8" font-family="Helvetica,sans-Serif" font-size="16.00">+ .tbi</text>
</g>
<!-- filter_mutect_umi2&#45;&gt;norm_mutect_umi2 -->
<g id="edge36" class="edge">
<title>filter_mutect_umi2&#45;&gt;norm_mutect_umi2</title>
<path fill="none" stroke="#667085" stroke-width="1.1" d="M2700.69,-385C2700.69,-385 2748.67,-385 2748.67,-385"/>
<polygon fill="#667085" stroke="#667085" stroke-width="1.1" points="2748.67,-387.17 2754.87,-385 2748.67,-382.83 2748.67,-387.17"/>
</g>
<!-- norm_mutect_strict -->
<g id="node32" class="node">
<title>norm_mutect_strict</title>
<path fill="#f1e6ff" stroke="#2f3a45" stroke-width="1.8" d="M2948.93,-332.02C2948.93,-332.02 2761.37,-332.02 2761.37,-332.02 2755.37,-332.02 2749.37,-326.02 2749.37,-320.02 2749.37,-320.02 2749.37,-281.98 2749.37,-281.98 2749.37,-275.98 2755.37,-269.98 2761.37,-269.98 2761.37,-269.98 2948.93,-269.98 2948.93,-269.98 2954.93,-269.98 2960.93,-275.98 2960.93,-281.98 2960.93,-281.98 2960.93,-320.02 2960.93,-320.02 2960.93,-326.02 2954.93,-332.02 2948.93,-332.02"/>
<text text-anchor="middle" x="2855.15" y="-305.3" font-family="Helvetica,sans-Serif" font-size="16.00">NORM_MUTECT_STRICT</text>
<text text-anchor="middle" x="2855.15" y="-285.8" font-family="Helvetica,sans-Serif" font-size="16.00">+ .tbi</text>
</g>
<!-- filter_mutect_strict&#45;&gt;norm_mutect_strict -->
<g id="edge39" class="edge">
<title>filter_mutect_strict&#45;&gt;norm_mutect_strict</title>
<path fill="none" stroke="#667085" stroke-width="1.1" d="M2708.02,-313.77C2708.02,-313.77 2741.16,-313.77 2741.16,-313.77"/>
<polygon fill="#667085" stroke="#667085" stroke-width="1.1" points="2741.16,-315.94 2747.36,-313.77 2741.16,-311.6 2741.16,-315.94"/>
</g>
<!-- merge_callers_umi2 -->
<g id="node37" class="node">
<title>merge_callers_umi2</title>
<path fill="#ffe4e4" stroke="#2f3a45" stroke-width="1.8" d="M2945.55,-158.02C2945.55,-158.02 2764.74,-158.02 2764.74,-158.02 2758.74,-158.02 2752.74,-152.02 2752.74,-146.02 2752.74,-146.02 2752.74,-107.98 2752.74,-107.98 2752.74,-101.98 2758.74,-95.98 2764.74,-95.98 2764.74,-95.98 2945.55,-95.98 2945.55,-95.98 2951.55,-95.98 2957.55,-101.98 2957.55,-107.98 2957.55,-107.98 2957.55,-146.02 2957.55,-146.02 2957.55,-152.02 2951.55,-158.02 2945.55,-158.02"/>
<text text-anchor="middle" x="2855.15" y="-131.3" font-family="Helvetica,sans-Serif" font-size="16.00">MERGE_CALLERS_UMI2</text>
<text text-anchor="middle" x="2855.15" y="-111.8" font-family="Helvetica,sans-Serif" font-size="16.00">Mutect + VarDict</text>
</g>
<!-- norm_mutect_umi2&#45;&gt;merge_callers_umi2 -->
<g id="edge44" class="edge">
<title>norm_mutect_umi2&#45;&gt;merge_callers_umi2</title>
<path fill="none" stroke="#667085" stroke-width="1.1" d="M2756.48,-353.23C2744.82,-353.23 2736.97,-353.23 2736.97,-353.23 2736.97,-353.23 2736.97,-137.34 2736.97,-137.34 2736.97,-137.34 2744.55,-137.34 2744.55,-137.34"/>
<polygon fill="#667085" stroke="#667085" stroke-width="1.1" points="2744.55,-139.51 2750.75,-137.34 2744.55,-135.17 2744.55,-139.51"/>
</g>
<!-- norm_mutect_umi2&#45;&gt;sample_outputs -->
<g id="edge84" class="edge">
<title>norm_mutect_umi2&#45;&gt;sample_outputs</title>
<path fill="none" stroke="#667085" stroke-width="1.1" d="M2953.69,-377.36C3246,-377.36 4087.97,-377.36 4087.97,-377.36 4087.97,-377.36 4087.97,-398.84 4087.97,-398.84"/>
<polygon fill="#667085" stroke="#667085" stroke-width="1.1" points="4085.8,-398.84 4087.97,-405.04 4090.14,-398.84 4085.8,-398.84"/>
</g>
<!-- merge_callers_strict -->
<g id="node38" class="node">
<title>merge_callers_strict</title>
<path fill="#ffe4e4" stroke="#2f3a45" stroke-width="1.8" d="M2953.05,-80.02C2953.05,-80.02 2757.24,-80.02 2757.24,-80.02 2751.24,-80.02 2745.24,-74.02 2745.24,-68.02 2745.24,-68.02 2745.24,-29.98 2745.24,-29.98 2745.24,-23.98 2751.24,-17.98 2757.24,-17.98 2757.24,-17.98 2953.05,-17.98 2953.05,-17.98 2959.05,-17.98 2965.05,-23.98 2965.05,-29.98 2965.05,-29.98 2965.05,-68.02 2965.05,-68.02 2965.05,-74.02 2959.05,-80.02 2953.05,-80.02"/>
<text text-anchor="middle" x="2855.15" y="-53.3" font-family="Helvetica,sans-Serif" font-size="16.00">MERGE_CALLERS_STRICT</text>
<text text-anchor="middle" x="2855.15" y="-33.8" font-family="Helvetica,sans-Serif" font-size="16.00">Mutect + VarDict</text>
</g>
<!-- norm_mutect_strict&#45;&gt;merge_callers_strict -->
<g id="edge46" class="edge">
<title>norm_mutect_strict&#45;&gt;merge_callers_strict</title>
<path fill="none" stroke="#667085" stroke-width="1.1" d="M2749,-274.5C2735.88,-274.5 2726.97,-274.5 2726.97,-274.5 2726.97,-274.5 2726.97,-59.34 2726.97,-59.34 2726.97,-59.34 2736.93,-59.34 2736.93,-59.34"/>
<polygon fill="#667085" stroke="#667085" stroke-width="1.1" points="2736.93,-61.51 2743.13,-59.34 2736.93,-57.17 2736.93,-61.51"/>
</g>
<!-- norm_mutect_strict&#45;&gt;sample_outputs -->
<g id="edge85" class="edge">
<title>norm_mutect_strict&#45;&gt;sample_outputs</title>
<path fill="none" stroke="#667085" stroke-width="1.1" d="M2957.97,-332.32C2957.97,-365.91 2957.97,-414.51 2957.97,-414.51 2957.97,-414.51 4071.83,-414.51 4071.83,-414.51"/>
<polygon fill="#667085" stroke="#667085" stroke-width="1.1" points="4071.83,-416.68 4078.03,-414.51 4071.83,-412.34 4071.83,-416.68"/>
</g>
<!-- norm_vardict_umi2 -->
<g id="node35" class="node">
<title>norm_vardict_umi2</title>
<path fill="#f1e6ff" stroke="#2f3a45" stroke-width="1.8" d="M2688.74,-488.02C2688.74,-488.02 2513.18,-488.02 2513.18,-488.02 2507.18,-488.02 2501.18,-482.02 2501.18,-476.02 2501.18,-476.02 2501.18,-437.98 2501.18,-437.98 2501.18,-431.98 2507.18,-425.98 2513.18,-425.98 2513.18,-425.98 2688.74,-425.98 2688.74,-425.98 2694.74,-425.98 2700.74,-431.98 2700.74,-437.98 2700.74,-437.98 2700.74,-476.02 2700.74,-476.02 2700.74,-482.02 2694.74,-488.02 2688.74,-488.02"/>
<text text-anchor="middle" x="2600.96" y="-461.3" font-family="Helvetica,sans-Serif" font-size="16.00">NORM_VARDICT_UMI2</text>
<text text-anchor="middle" x="2600.96" y="-441.8" font-family="Helvetica,sans-Serif" font-size="16.00">+ .tbi</text>
</g>
<!-- vardict_umi2&#45;&gt;norm_vardict_umi2 -->
<g id="edge41" class="edge">
<title>vardict_umi2&#45;&gt;norm_vardict_umi2</title>
<path fill="none" stroke="#667085" stroke-width="1.1" d="M2454.8,-463.77C2454.8,-463.77 2493.11,-463.77 2493.11,-463.77"/>
<polygon fill="#667085" stroke="#667085" stroke-width="1.1" points="2493.11,-465.94 2499.31,-463.77 2493.11,-461.6 2493.11,-465.94"/>
</g>
<!-- norm_vardict_strict -->
<g id="node36" class="node">
<title>norm_vardict_strict</title>
<path fill="#f1e6ff" stroke="#2f3a45" stroke-width="1.8" d="M2696.24,-279.02C2696.24,-279.02 2505.68,-279.02 2505.68,-279.02 2499.68,-279.02 2493.68,-273.02 2493.68,-267.02 2493.68,-267.02 2493.68,-228.98 2493.68,-228.98 2493.68,-222.98 2499.68,-216.98 2505.68,-216.98 2505.68,-216.98 2696.24,-216.98 2696.24,-216.98 2702.24,-216.98 2708.24,-222.98 2708.24,-228.98 2708.24,-228.98 2708.24,-267.02 2708.24,-267.02 2708.24,-273.02 2702.24,-279.02 2696.24,-279.02"/>
<text text-anchor="middle" x="2600.96" y="-252.3" font-family="Helvetica,sans-Serif" font-size="16.00">NORM_VARDICT_STRICT</text>
<text text-anchor="middle" x="2600.96" y="-232.8" font-family="Helvetica,sans-Serif" font-size="16.00">+ .tbi</text>
</g>
<!-- vardict_strict&#45;&gt;norm_vardict_strict -->
<g id="edge43" class="edge">
<title>vardict_strict&#45;&gt;norm_vardict_strict</title>
<path fill="none" stroke="#667085" stroke-width="1.1" d="M2457,-261.77C2457,-261.77 2485.51,-261.77 2485.51,-261.77"/>
<polygon fill="#667085" stroke="#667085" stroke-width="1.1" points="2485.51,-263.94 2491.71,-261.77 2485.51,-259.6 2485.51,-263.94"/>
</g>
<!-- norm_vardict_umi2&#45;&gt;merge_callers_umi2 -->
<g id="edge45" class="edge">
<title>norm_vardict_umi2&#45;&gt;merge_callers_umi2</title>
<path fill="none" stroke="#667085" stroke-width="1.1" d="M2701.21,-446.66C2711.33,-446.66 2717.97,-446.66 2717.97,-446.66 2717.97,-446.66 2717.97,-116.66 2717.97,-116.66 2717.97,-116.66 2744.72,-116.66 2744.72,-116.66"/>
<polygon fill="#667085" stroke="#667085" stroke-width="1.1" points="2744.72,-118.83 2750.92,-116.66 2744.72,-114.49 2744.72,-118.83"/>
</g>
<!-- norm_vardict_umi2&#45;&gt;sample_outputs -->
<g id="edge86" class="edge">
<title>norm_vardict_umi2&#45;&gt;sample_outputs</title>
<path fill="none" stroke="#667085" stroke-width="1.1" d="M2701.13,-467.34C2701.13,-467.34 4072.17,-467.34 4072.17,-467.34"/>
<polygon fill="#667085" stroke="#667085" stroke-width="1.1" points="4072.17,-469.51 4078.37,-467.34 4072.17,-465.17 4072.17,-469.51"/>
</g>
<!-- norm_vardict_strict&#45;&gt;merge_callers_strict -->
<g id="edge47" class="edge">
<title>norm_vardict_strict&#45;&gt;merge_callers_strict</title>
<path fill="none" stroke="#667085" stroke-width="1.1" d="M2600.97,-216.66C2600.97,-158.26 2600.97,-38.66 2600.97,-38.66 2600.97,-38.66 2736.9,-38.66 2736.9,-38.66"/>
<polygon fill="#667085" stroke="#667085" stroke-width="1.1" points="2736.9,-40.83 2743.1,-38.66 2736.9,-36.49 2736.9,-40.83"/>
</g>
<!-- norm_vardict_strict&#45;&gt;sample_outputs -->
<g id="edge87" class="edge">
<title>norm_vardict_strict&#45;&gt;sample_outputs</title>
<path fill="none" stroke="#667085" stroke-width="1.1" d="M2708.51,-243.48C3049.47,-243.48 4083.97,-243.48 4083.97,-243.48 4083.97,-243.48 4083.97,-398.65 4083.97,-398.65"/>
<polygon fill="#667085" stroke="#667085" stroke-width="1.1" points="4081.8,-398.65 4083.97,-404.85 4086.14,-398.65 4081.8,-398.65"/>
</g>
<!-- sort_merged_umi2 -->
<g id="node39" class="node">
<title>sort_merged_umi2</title>
<path fill="#ffe4e4" stroke="#2f3a45" stroke-width="1.8" d="M3188.86,-151.48C3188.86,-151.48 3021.55,-151.48 3021.55,-151.48 3015.55,-151.48 3009.55,-145.48 3009.55,-139.48 3009.55,-139.48 3009.55,-114.52 3009.55,-114.52 3009.55,-108.52 3015.55,-102.52 3021.55,-102.52 3021.55,-102.52 3188.86,-102.52 3188.86,-102.52 3194.86,-102.52 3200.86,-108.52 3200.86,-114.52 3200.86,-114.52 3200.86,-139.48 3200.86,-139.48 3200.86,-145.48 3194.86,-151.48 3188.86,-151.48"/>
<text text-anchor="middle" x="3105.21" y="-121.55" font-family="Helvetica,sans-Serif" font-size="16.00">SORT_MERGED_UMI2</text>
</g>
<!-- merge_callers_umi2&#45;&gt;sort_merged_umi2 -->
<g id="edge48" class="edge">
<title>merge_callers_umi2&#45;&gt;sort_merged_umi2</title>
<path fill="none" stroke="#667085" stroke-width="1.1" d="M2957.94,-127C2957.94,-127 3001.38,-127 3001.38,-127"/>
<polygon fill="#667085" stroke="#667085" stroke-width="1.1" points="3001.38,-129.17 3007.58,-127 3001.38,-124.83 3001.38,-129.17"/>
</g>
<!-- sort_merged_strict -->
<g id="node40" class="node">
<title>sort_merged_strict</title>
<path fill="#ffe4e4" stroke="#2f3a45" stroke-width="1.8" d="M3196.36,-80.48C3196.36,-80.48 3014.05,-80.48 3014.05,-80.48 3008.05,-80.48 3002.05,-74.48 3002.05,-68.48 3002.05,-68.48 3002.05,-43.52 3002.05,-43.52 3002.05,-37.52 3008.05,-31.52 3014.05,-31.52 3014.05,-31.52 3196.36,-31.52 3196.36,-31.52 3202.36,-31.52 3208.36,-37.52 3208.36,-43.52 3208.36,-43.52 3208.36,-68.48 3208.36,-68.48 3208.36,-74.48 3202.36,-80.48 3196.36,-80.48"/>
<text text-anchor="middle" x="3105.21" y="-50.55" font-family="Helvetica,sans-Serif" font-size="16.00">SORT_MERGED_STRICT</text>
</g>
<!-- merge_callers_strict&#45;&gt;sort_merged_strict -->
<g id="edge49" class="edge">
<title>merge_callers_strict&#45;&gt;sort_merged_strict</title>
<path fill="none" stroke="#667085" stroke-width="1.1" d="M2965.19,-55.77C2965.19,-55.77 2993.99,-55.77 2993.99,-55.77"/>
<polygon fill="#667085" stroke="#667085" stroke-width="1.1" points="2993.99,-57.94 3000.19,-55.77 2993.99,-53.6 2993.99,-57.94"/>
</g>
<!-- merge_umis -->
<g id="node41" class="node">
<title>merge_umis</title>
<path fill="#ffe4e4" stroke="#2f3a45" stroke-width="1.8" d="M3403.79,-158.02C3403.79,-158.02 3272.99,-158.02 3272.99,-158.02 3266.99,-158.02 3260.99,-152.02 3260.99,-146.02 3260.99,-146.02 3260.99,-107.98 3260.99,-107.98 3260.99,-101.98 3266.99,-95.98 3272.99,-95.98 3272.99,-95.98 3403.79,-95.98 3403.79,-95.98 3409.79,-95.98 3415.79,-101.98 3415.79,-107.98 3415.79,-107.98 3415.79,-146.02 3415.79,-146.02 3415.79,-152.02 3409.79,-158.02 3403.79,-158.02"/>
<text text-anchor="middle" x="3338.39" y="-131.3" font-family="Helvetica,sans-Serif" font-size="16.00">MERGE_UMIS</text>
<text text-anchor="middle" x="3338.39" y="-111.8" font-family="Helvetica,sans-Serif" font-size="16.00">UMI2 + strict</text>
</g>
<!-- sort_merged_umi2&#45;&gt;merge_umis -->
<g id="edge50" class="edge">
<title>sort_merged_umi2&#45;&gt;merge_umis</title>
<path fill="none" stroke="#667085" stroke-width="1.1" d="M3201.06,-135.16C3201.06,-135.16 3252.82,-135.16 3252.82,-135.16"/>
<polygon fill="#667085" stroke="#667085" stroke-width="1.1" points="3252.82,-137.33 3259.02,-135.16 3252.82,-132.99 3252.82,-137.33"/>
</g>
<!-- sort_merged_strict&#45;&gt;merge_umis -->
<g id="edge51" class="edge">
<title>sort_merged_strict&#45;&gt;merge_umis</title>
<path fill="none" stroke="#667085" stroke-width="1.1" d="M3205.97,-80.84C3205.97,-98.4 3205.97,-118.84 3205.97,-118.84 3205.97,-118.84 3252.73,-118.84 3252.73,-118.84"/>
<polygon fill="#667085" stroke="#667085" stroke-width="1.1" points="3252.73,-121.01 3258.93,-118.84 3252.73,-116.67 3252.73,-121.01"/>
</g>
<!-- sort_merged_umis -->
<g id="node42" class="node">
<title>sort_merged_umis</title>
<path fill="#ffe4e4" stroke="#2f3a45" stroke-width="1.8" d="M3654.86,-151.48C3654.86,-151.48 3486.8,-151.48 3486.8,-151.48 3480.8,-151.48 3474.8,-145.48 3474.8,-139.48 3474.8,-139.48 3474.8,-114.52 3474.8,-114.52 3474.8,-108.52 3480.8,-102.52 3486.8,-102.52 3486.8,-102.52 3654.86,-102.52 3654.86,-102.52 3660.86,-102.52 3666.86,-108.52 3666.86,-114.52 3666.86,-114.52 3666.86,-139.48 3666.86,-139.48 3666.86,-145.48 3660.86,-151.48 3654.86,-151.48"/>
<text text-anchor="middle" x="3570.83" y="-121.55" font-family="Helvetica,sans-Serif" font-size="16.00">SORT_MERGED_UMIS</text>
</g>
<!-- merge_umis&#45;&gt;sort_merged_umis -->
<g id="edge52" class="edge">
<title>merge_umis&#45;&gt;sort_merged_umis</title>
<path fill="none" stroke="#667085" stroke-width="1.1" d="M3416.11,-127C3416.11,-127 3466.71,-127 3466.71,-127"/>
<polygon fill="#667085" stroke="#667085" stroke-width="1.1" points="3466.71,-129.17 3472.91,-127 3466.71,-124.83 3466.71,-129.17"/>
</g>
<!-- bgzip_final -->
<g id="node43" class="node">
<title>bgzip_final</title>
<path fill="#ffe4e4" stroke="#2f3a45" stroke-width="1.8" d="M3969.54,-158.02C3969.54,-158.02 3800.73,-158.02 3800.73,-158.02 3794.73,-158.02 3788.73,-152.02 3788.73,-146.02 3788.73,-146.02 3788.73,-107.98 3788.73,-107.98 3788.73,-101.98 3794.73,-95.98 3800.73,-95.98 3800.73,-95.98 3969.54,-95.98 3969.54,-95.98 3975.54,-95.98 3981.54,-101.98 3981.54,-107.98 3981.54,-107.98 3981.54,-146.02 3981.54,-146.02 3981.54,-152.02 3975.54,-158.02 3969.54,-158.02"/>
<text text-anchor="middle" x="3885.14" y="-131.3" font-family="Helvetica,sans-Serif" font-size="16.00">BGZIP_FINAL_MERGE</text>
<text text-anchor="middle" x="3885.14" y="-111.8" font-family="Helvetica,sans-Serif" font-size="16.00">final VCF.gz + .tbi</text>
</g>
<!-- sort_merged_umis&#45;&gt;bgzip_final -->
<g id="edge53" class="edge">
<title>sort_merged_umis&#45;&gt;bgzip_final</title>
<path fill="none" stroke="#667085" stroke-width="1.1" d="M3667.26,-127C3667.26,-127 3780.47,-127 3780.47,-127"/>
<polygon fill="#667085" stroke="#667085" stroke-width="1.1" points="3780.47,-129.17 3786.67,-127 3780.47,-124.83 3780.47,-129.17"/>
</g>
<!-- convert_final -->
<g id="node44" class="node">
<title>convert_final</title>
<path fill="#ffe4e4" stroke="#2f3a45" stroke-width="1.8" d="M4240.73,-158.02C4240.73,-158.02 4106.42,-158.02 4106.42,-158.02 4100.42,-158.02 4094.42,-152.02 4094.42,-146.02 4094.42,-146.02 4094.42,-107.98 4094.42,-107.98 4094.42,-101.98 4100.42,-95.98 4106.42,-95.98 4106.42,-95.98 4240.73,-95.98 4240.73,-95.98 4246.73,-95.98 4252.73,-101.98 4252.73,-107.98 4252.73,-107.98 4252.73,-146.02 4252.73,-146.02 4252.73,-152.02 4246.73,-158.02 4240.73,-158.02"/>
<text text-anchor="middle" x="4173.57" y="-131.3" font-family="Helvetica,sans-Serif" font-size="16.00">CONVERT_FINAL</text>
<text text-anchor="middle" x="4173.57" y="-111.8" font-family="Helvetica,sans-Serif" font-size="16.00">VCF &#45;&gt; avinput</text>
</g>
<!-- bgzip_final&#45;&gt;convert_final -->
<g id="edge54" class="edge">
<title>bgzip_final&#45;&gt;convert_final</title>
<path fill="none" stroke="#667085" stroke-width="1.1" d="M3981.98,-116.66C3981.98,-116.66 4086.37,-116.66 4086.37,-116.66"/>
<polygon fill="#667085" stroke="#667085" stroke-width="1.1" points="4086.37,-118.83 4092.57,-116.66 4086.37,-114.49 4086.37,-118.83"/>
</g>
<!-- make_vcf_list -->
<g id="node47" class="node">
<title>make_vcf_list</title>
<path fill="#edf0f5" stroke="#2f3a45" stroke-width="1.8" d="M2939.93,-707.02C2939.93,-707.02 2770.37,-707.02 2770.37,-707.02 2764.37,-707.02 2758.37,-701.02 2758.37,-695.02 2758.37,-695.02 2758.37,-656.98 2758.37,-656.98 2758.37,-650.98 2764.37,-644.98 2770.37,-644.98 2770.37,-644.98 2939.93,-644.98 2939.93,-644.98 2945.93,-644.98 2951.93,-650.98 2951.93,-656.98 2951.93,-656.98 2951.93,-695.02 2951.93,-695.02 2951.93,-701.02 2945.93,-707.02 2939.93,-707.02"/>
<text text-anchor="middle" x="2855.15" y="-680.3" font-family="Helvetica,sans-Serif" font-size="16.00">MAKE_VCF_LIST</text>
<text text-anchor="middle" x="2855.15" y="-660.8" font-family="Helvetica,sans-Serif" font-size="16.00">waits for all final VCFs</text>
</g>
<!-- bgzip_final&#45;&gt;make_vcf_list -->
<g id="edge57" class="edge">
<title>bgzip_final&#45;&gt;make_vcf_list</title>
<path fill="none" stroke="#667085" stroke-width="1.1" d="M3885.97,-158.25C3885.97,-233.57 3885.97,-418.99 3885.97,-418.99 3885.97,-418.99 2855.97,-418.99 2855.97,-418.99 2855.97,-418.99 2855.97,-636.62 2855.97,-636.62"/>
<polygon fill="#667085" stroke="#667085" stroke-width="1.1" points="2853.8,-636.62 2855.97,-642.82 2858.14,-636.62 2853.8,-636.62"/>
</g>
<!-- bgzip_final&#45;&gt;sample_outputs -->
<g id="edge83" class="edge">
<title>bgzip_final&#45;&gt;sample_outputs</title>
<path fill="none" stroke="#667085" stroke-width="1.1" d="M3982.03,-137.34C4035.41,-137.34 4090.97,-137.34 4090.97,-137.34 4090.97,-137.34 4090.97,-398.67 4090.97,-398.67"/>
<polygon fill="#667085" stroke="#667085" stroke-width="1.1" points="4088.8,-398.67 4090.97,-404.87 4093.14,-398.67 4088.8,-398.67"/>
</g>
<!-- convert_final&#45;&gt;table_final -->
<g id="edge55" class="edge">
<title>convert_final&#45;&gt;table_final</title>
<path fill="none" stroke="#667085" stroke-width="1.1" d="M4252.91,-127C4252.91,-127 4350.05,-127 4350.05,-127"/>
<polygon fill="#667085" stroke="#667085" stroke-width="1.1" points="4350.05,-129.17 4356.25,-127 4350.05,-124.83 4350.05,-129.17"/>
</g>
<!-- add_dpaf_final -->
<g id="node46" class="node">
<title>add_dpaf_final</title>
<path fill="#ffe4e4" stroke="#2f3a45" stroke-width="1.8" d="M4750.97,-155.48C4750.97,-155.48 4608.41,-155.48 4608.41,-155.48 4602.41,-155.48 4596.41,-149.48 4596.41,-143.48 4596.41,-143.48 4596.41,-118.52 4596.41,-118.52 4596.41,-112.52 4602.41,-106.52 4608.41,-106.52 4608.41,-106.52 4750.97,-106.52 4750.97,-106.52 4756.97,-106.52 4762.97,-112.52 4762.97,-118.52 4762.97,-118.52 4762.97,-143.48 4762.97,-143.48 4762.97,-149.48 4756.97,-155.48 4750.97,-155.48"/>
<text text-anchor="middle" x="4679.69" y="-125.55" font-family="Helvetica,sans-Serif" font-size="16.00">ADD_DPAF_FINAL</text>
</g>
<!-- table_final&#45;&gt;add_dpaf_final -->
<g id="edge56" class="edge">
<title>table_final&#45;&gt;add_dpaf_final</title>
<path fill="none" stroke="#667085" stroke-width="1.1" d="M4513.52,-131C4513.52,-131 4588.35,-131 4588.35,-131"/>
<polygon fill="#667085" stroke="#667085" stroke-width="1.1" points="4588.35,-133.17 4594.55,-131 4588.35,-128.83 4588.35,-133.17"/>
</g>
<!-- add_dpaf_final&#45;&gt;stats_summary -->
<g id="edge62" class="edge">
<title>add_dpaf_final&#45;&gt;stats_summary</title>
<path fill="none" stroke="#667085" stroke-width="1.1" d="M4679.97,-155.83C4679.97,-272.93 4679.97,-764.36 4679.97,-764.36 4679.97,-764.36 3570.97,-764.36 3570.97,-764.36 3570.97,-764.36 3570.97,-801.96 3570.97,-801.96"/>
<polygon fill="#667085" stroke="#667085" stroke-width="1.1" points="3568.8,-801.96 3570.97,-808.16 3573.14,-801.96 3568.8,-801.96"/>
</g>
<!-- mark_artifacts -->
<g id="node48" class="node">
<title>mark_artifacts</title>
<path fill="#edf0f5" stroke="#2f3a45" stroke-width="1.8" d="M3183.99,-707.02C3183.99,-707.02 3026.43,-707.02 3026.43,-707.02 3020.43,-707.02 3014.43,-701.02 3014.43,-695.02 3014.43,-695.02 3014.43,-656.98 3014.43,-656.98 3014.43,-650.98 3020.43,-644.98 3026.43,-644.98 3026.43,-644.98 3183.99,-644.98 3183.99,-644.98 3189.99,-644.98 3195.99,-650.98 3195.99,-656.98 3195.99,-656.98 3195.99,-695.02 3195.99,-695.02 3195.99,-701.02 3189.99,-707.02 3183.99,-707.02"/>
<text text-anchor="middle" x="3105.21" y="-680.3" font-family="Helvetica,sans-Serif" font-size="16.00">MARK_ARTIFACTS</text>
<text text-anchor="middle" x="3105.21" y="-660.8" font-family="Helvetica,sans-Serif" font-size="16.00">cohort artifact labels</text>
</g>
<!-- make_vcf_list&#45;&gt;mark_artifacts -->
<g id="edge58" class="edge">
<title>make_vcf_list&#45;&gt;mark_artifacts</title>
<path fill="none" stroke="#667085" stroke-width="1.1" d="M2952.18,-676C2952.18,-676 3006.09,-676 3006.09,-676"/>
<polygon fill="#667085" stroke="#667085" stroke-width="1.1" points="3006.09,-678.17 3012.29,-676 3006.09,-673.83 3006.09,-678.17"/>
</g>
<!-- convert_marked -->
<g id="node49" class="node">
<title>convert_marked</title>
<path fill="#edf0f5" stroke="#2f3a45" stroke-width="1.8" d="M3415.3,-700.48C3415.3,-700.48 3261.49,-700.48 3261.49,-700.48 3255.49,-700.48 3249.49,-694.48 3249.49,-688.48 3249.49,-688.48 3249.49,-663.52 3249.49,-663.52 3249.49,-657.52 3255.49,-651.52 3261.49,-651.52 3261.49,-651.52 3415.3,-651.52 3415.3,-651.52 3421.3,-651.52 3427.3,-657.52 3427.3,-663.52 3427.3,-663.52 3427.3,-688.48 3427.3,-688.48 3427.3,-694.48 3421.3,-700.48 3415.3,-700.48"/>
<text text-anchor="middle" x="3338.39" y="-670.55" font-family="Helvetica,sans-Serif" font-size="16.00">CONVERT_MARKED</text>
</g>
<!-- mark_artifacts&#45;&gt;convert_marked -->
<g id="edge59" class="edge">
<title>mark_artifacts&#45;&gt;convert_marked</title>
<path fill="none" stroke="#667085" stroke-width="1.1" d="M3196.36,-676C3196.36,-676 3241.34,-676 3241.34,-676"/>
<polygon fill="#667085" stroke="#667085" stroke-width="1.1" points="3241.34,-678.17 3247.54,-676 3241.34,-673.83 3241.34,-678.17"/>
</g>
<!-- convert_marked&#45;&gt;table_marked -->
<g id="edge60" class="edge">
<title>convert_marked&#45;&gt;table_marked</title>
<path fill="none" stroke="#667085" stroke-width="1.1" d="M3427.59,-676C3427.59,-676 3485.37,-676 3485.37,-676"/>
<polygon fill="#667085" stroke="#667085" stroke-width="1.1" points="3485.37,-678.17 3491.57,-676 3485.37,-673.83 3485.37,-678.17"/>
</g>
<!-- add_dpaf_marked -->
<g id="node51" class="node">
<title>add_dpaf_marked</title>
<path fill="#edf0f5" stroke="#2f3a45" stroke-width="1.8" d="M3966.17,-707.02C3966.17,-707.02 3804.11,-707.02 3804.11,-707.02 3798.11,-707.02 3792.11,-701.02 3792.11,-695.02 3792.11,-695.02 3792.11,-656.98 3792.11,-656.98 3792.11,-650.98 3798.11,-644.98 3804.11,-644.98 3804.11,-644.98 3966.17,-644.98 3966.17,-644.98 3972.17,-644.98 3978.17,-650.98 3978.17,-656.98 3978.17,-656.98 3978.17,-695.02 3978.17,-695.02 3978.17,-701.02 3972.17,-707.02 3966.17,-707.02"/>
<text text-anchor="middle" x="3885.14" y="-680.3" font-family="Helvetica,sans-Serif" font-size="16.00">ADD_DPAF_MARKED</text>
<text text-anchor="middle" x="3885.14" y="-660.8" font-family="Helvetica,sans-Serif" font-size="16.00">final marked CSV</text>
</g>
<!-- table_marked&#45;&gt;add_dpaf_marked -->
<g id="edge61" class="edge">
<title>table_marked&#45;&gt;add_dpaf_marked</title>
<path fill="none" stroke="#667085" stroke-width="1.1" d="M3648.52,-676C3648.52,-676 3783.97,-676 3783.97,-676"/>
<polygon fill="#667085" stroke="#667085" stroke-width="1.1" points="3783.97,-678.17 3790.17,-676 3783.97,-673.83 3783.97,-678.17"/>
</g>
<!-- add_dpaf_marked&#45;&gt;multiqc -->
<g id="edge75" class="edge">
<title>add_dpaf_marked&#45;&gt;multiqc</title>
<path fill="none" stroke="#667085" stroke-width="1.1" stroke-dasharray="5,2" d="M3978.38,-685C3978.38,-685 4064.06,-685 4064.06,-685"/>
<polygon fill="#667085" stroke="#667085" stroke-width="1.1" points="4064.06,-687.17 4070.26,-685 4064.06,-682.83 4064.06,-687.17"/>
<text text-anchor="middle" x="4026.92" y="-688.8" font-family="Helvetica,sans-Serif" font-size="11.00">completion</text>
</g>
<!-- add_dpaf_marked&#45;&gt;keep_important -->
<g id="edge76" class="edge">
<title>add_dpaf_marked&#45;&gt;keep_important</title>
<path fill="none" stroke="#667085" stroke-width="1.1" d="M3978.52,-656.98C3978.52,-656.98 4303.62,-656.98 4303.62,-656.98"/>
<polygon fill="#667085" stroke="#667085" stroke-width="1.1" points="4303.62,-659.15 4309.82,-656.98 4303.62,-654.81 4303.62,-659.15"/>
</g>
<!-- add_dpaf_marked&#45;&gt;sample_outputs -->
<g id="edge82" class="edge">
<title>add_dpaf_marked&#45;&gt;sample_outputs</title>
<path fill="none" stroke="#667085" stroke-width="1.1" d="M3978.51,-650.98C4062.9,-650.98 4173.97,-650.98 4173.97,-650.98 4173.97,-650.98 4173.97,-535.62 4173.97,-535.62"/>
<polygon fill="#667085" stroke="#667085" stroke-width="1.1" points="4176.14,-535.62 4173.97,-529.42 4171.8,-535.62 4176.14,-535.62"/>
</g>
<!-- multiqc&#45;&gt;keep_important -->
<g id="edge79" class="edge">
<title>multiqc&#45;&gt;keep_important</title>
<path fill="none" stroke="#667085" stroke-width="1.1" d="M4275.26,-685C4275.26,-685 4303.83,-685 4303.83,-685"/>
<polygon fill="#667085" stroke="#667085" stroke-width="1.1" points="4303.83,-687.17 4310.03,-685 4303.83,-682.83 4303.83,-687.17"/>
</g>
<!-- pipeline_reports -->
<g id="node55" class="node">
<title>pipeline_reports</title>
<polygon fill="#eef2ff" stroke="#2f3a45" stroke-width="1.8" points="4532.79,-896.27 4332.48,-896.27 4332.48,-775.73 4538.79,-775.73 4538.79,-890.27 4532.79,-896.27"/>
<polyline fill="none" stroke="#2f3a45" stroke-width="1.8" points="4532.79,-896.27 4532.79,-890.27"/>
<polyline fill="none" stroke="#2f3a45" stroke-width="1.8" points="4538.79,-890.27 4532.79,-890.27"/>
<text text-anchor="middle" x="4435.63" y="-869.55" font-family="Helvetica,sans-Serif" font-size="16.00">Pipeline Reports</text>
<text text-anchor="middle" x="4435.63" y="-850.05" font-family="Helvetica,sans-Serif" font-size="16.00">execution_trace.txt</text>
<text text-anchor="middle" x="4435.63" y="-830.55" font-family="Helvetica,sans-Serif" font-size="16.00">execution_report.html</text>
<text text-anchor="middle" x="4435.63" y="-811.05" font-family="Helvetica,sans-Serif" font-size="16.00">execution_timeline.html</text>
<text text-anchor="middle" x="4435.63" y="-791.55" font-family="Helvetica,sans-Serif" font-size="16.00">pipeline_dag.html</text>
</g>
<!-- multiqc&#45;&gt;pipeline_reports -->
<g id="edge90" class="edge">
<title>multiqc&#45;&gt;pipeline_reports</title>
<path fill="none" stroke="#667085" stroke-width="1.1" d="M4224.97,-725.43C4224.97,-751.34 4224.97,-783.86 4224.97,-783.86 4224.97,-783.86 4324.29,-783.86 4324.29,-783.86"/>
<polygon fill="#667085" stroke="#667085" stroke-width="1.1" points="4324.29,-786.03 4330.49,-783.86 4324.29,-781.69 4324.29,-786.03"/>
</g>
</g>
</svg>
